<?xml version="1.0" encoding="utf-8"?>
<COLLADA xmlns="http://www.collada.org/2005/11/COLLADASchema" version="1.4.1">
  <asset>
    <contributor>
      <author>Blender User</author>
      <authoring_tool>Blender 2.76.0 commit date:2015-10-11, commit time:06:55, hash:48f7dd6</authoring_tool>
    </contributor>
    <created>2016-07-13T21:23:49</created>
    <modified>2016-07-13T21:23:49</modified>
    <unit name="meter" meter="1"/>
    <up_axis>Z_UP</up_axis>
  </asset>
  <library_images/>
  <library_effects>
    <effect id="Material_006-effect">
      <profile_COMMON>
        <technique sid="common">
          <phong>
            <emission>
              <color sid="emission">0 0 0 1</color>
            </emission>
            <ambient>
              <color sid="ambient">0 0 0 1</color>
            </ambient>
            <diffuse>
              <color sid="diffuse">6.38916e-4 0.1615213 0.004998389 1</color>
            </diffuse>
            <specular>
              <color sid="specular">0.2054698 0.1415175 0.007943728 1</color>
            </specular>
            <shininess>
              <float sid="shininess">15</float>
            </shininess>
            <index_of_refraction>
              <float sid="index_of_refraction">1</float>
            </index_of_refraction>
          </phong>
        </technique>
      </profile_COMMON>
    </effect>
    <effect id="Material_004-effect">
      <profile_COMMON>
        <technique sid="common">
          <phong>
            <emission>
              <color sid="emission">0 0 0 1</color>
            </emission>
            <ambient>
              <color sid="ambient">0 0 0 1</color>
            </ambient>
            <diffuse>
              <color sid="diffuse">0.5013308 0.5013308 0.5013308 1</color>
            </diffuse>
            <specular>
              <color sid="specular">0.3410171 0.4135373 0.5 1</color>
            </specular>
            <shininess>
              <float sid="shininess">10</float>
            </shininess>
            <index_of_refraction>
              <float sid="index_of_refraction">1</float>
            </index_of_refraction>
          </phong>
        </technique>
      </profile_COMMON>
    </effect>
  </library_effects>
  <library_materials>
    <material id="Material_006-material" name="Material_006">
      <instance_effect url="#Material_006-effect"/>
    </material>
    <material id="Material_004-material" name="Material_004">
      <instance_effect url="#Material_004-effect"/>
    </material>
  </library_materials>
  <library_geometries>
    <geometry id="Sphere_006-mesh" name="Sphere.006">
      <mesh>
        <source id="Sphere_006-mesh-positions">
          <float_array id="Sphere_006-mesh-positions-array" count="405">-0.2654328 0.04757225 0.9808928 -0.5066137 0.04757225 0.8809923 -0.7137205 0.04757225 0.7220737 -0.8726392 0.04757225 0.514967 -0.9725396 0.04757225 0.2737861 -1.006614 0.04757225 0.01496702 -0.9725397 0.04757225 -0.2438519 -0.8726392 0.04757225 -0.4850329 -0.7137207 0.04757225 -0.6921396 -0.506614 0.04757225 -0.8510583 -0.2654331 0.04757225 -0.9509588 -0.2307577 0.1769815 0.9808928 -0.4396265 0.297572 0.8809923 -0.6189862 0.4011254 0.7220737 -0.7566138 0.4805849 0.514967 -0.8431301 0.530535 0.2737861 -0.8726392 0.5475721 0.01496702 -0.8431301 0.530535 -0.2438519 -0.7566139 0.4805849 -0.4850329 -0.6189864 0.4011254 -0.6921396 -0.4396267 0.2975721 -0.8510583 -0.230758 0.1769816 -0.9509588 -0.006614089 0.04757225 -0.985033 -0.1360235 0.2717158 0.9808928 -0.2566139 0.4805846 0.8809923 -0.3601673 0.6599443 0.7220737 -0.4396266 0.7975719 0.514967 -0.4895768 0.8840883 0.2737861 -0.5066139 0.9135974 0.01496702 -0.4895769 0.8840883 -0.2438519 -0.4396267 0.7975719 -0.4850329 -0.3601674 0.6599445 -0.6921396 -0.256614 0.4805849 -0.8510583 -0.1360236 0.2717161 -0.9509588 -0.006614148 0.3063909 0.9808928 -0.006614089 0.5475719 0.8809923 -0.006614089 0.7546787 0.7220737 -0.006614089 0.9135974 0.514967 -0.006614089 1.013498 0.2737861 -0.006614089 1.047572 0.01496702 -0.006614148 1.013498 -0.2438519 -0.006614089 0.9135974 -0.4850329 -0.006614089 0.7546787 -0.6921396 -0.006614089 0.5475721 -0.8510583 -0.006614089 0.3063912 -0.9509588 0.1227952 0.2717158 0.9808928 0.2433856 0.4805846 0.8809923 0.346939 0.6599443 0.7220737 0.4263983 0.7975719 0.514967 0.4763486 0.8840883 0.2737861 0.4933856 0.9135974 0.01496702 0.4763486 0.8840883 -0.2438519 0.4263984 0.7975719 -0.4850329 0.3469391 0.6599445 -0.6921396 0.2433857 0.4805846 -0.8510583 0.1227953 0.271716 -0.9509588 -0.006614446 0.04757201 1.014967 0.2175294 0.1769815 0.9808928 0.4263981 0.297572 0.8809923 0.605758 0.4011254 0.7220737 0.7433855 0.4805846 0.514967 0.8299019 0.530535 0.2737861 0.859411 0.5475719 0.01496702 0.8299019 0.530535 -0.2438519 0.7433856 0.4805849 -0.4850329 0.6057581 0.4011254 -0.6921396 0.4263983 0.2975721 -0.8510583 0.2175296 0.1769816 -0.9509588 0.2522045 0.04757225 0.9808928 0.4933853 0.04757225 0.8809923 0.7004923 0.04757213 0.7220737 0.8594108 0.04757225 0.514967 0.9593113 0.04757225 0.2737861 0.9933854 0.04757213 0.01496702 0.9593113 0.04757225 -0.2438519 0.859411 0.04757225 -0.4850329 0.7004925 0.04757225 -0.6921396 0.4933856 0.04757213 -0.8510583 0.2522048 0.04757225 -0.9509588 0.2175293 -0.08183705 0.9808928 0.426398 -0.2024275 0.8809923 0.6057579 -0.305981 0.7220737 0.7433854 -0.3854402 0.514967 0.8299018 -0.4353905 0.2737861 0.8594108 -0.4524276 0.01496702 0.8299018 -0.4353905 -0.2438519 0.7433856 -0.3854404 -0.4850329 0.6057581 -0.305981 -0.6921396 0.4263983 -0.2024276 -0.8510583 0.2175296 -0.08183717 -0.9509588 0.1227951 -0.1765712 0.9808928 0.2433855 -0.38544 0.8809923 0.3469389 -0.5647998 0.7220737 0.4263982 -0.7024273 0.514967 0.4763485 -0.7889437 0.2737861 0.4933854 -0.8184528 0.01496702 0.4763485 -0.7889437 -0.2438519 0.4263983 -0.7024275 -0.4850329 0.3469391 -0.5648 -0.6921396 0.2433856 -0.3854402 -0.8510583 0.1227953 -0.1765714 -0.9509588 -0.006614148 -0.2112463 0.9808928 -0.006614208 -0.4524272 0.8809923 -0.006614267 -0.659534 0.7220737 -0.006614148 -0.8184526 0.514967 -0.006614208 -0.9183531 0.2737861 -0.006614267 -0.9524272 0.01496702 -0.006614208 -0.9183531 -0.2438519 -0.006614208 -0.8184528 -0.4850329 -0.006614148 -0.6595343 -0.6921396 -0.006614208 -0.4524275 -0.8510583 -0.006614148 -0.2112467 -0.9509588 -0.1360234 -0.1765712 0.9808928 -0.2566139 -0.3854399 0.8809923 -0.3601674 -0.5647997 0.7220737 -0.4396266 -0.7024272 0.514967 -0.4895769 -0.7889436 0.2737861 -0.506614 -0.8184525 0.01496702 -0.4895769 -0.7889436 -0.2438519 -0.4396268 -0.7024273 -0.4850329 -0.3601675 -0.5648 -0.6921396 -0.2566141 -0.3854401 -0.8510583 -0.1360236 -0.1765714 -0.9509588 -0.2307576 -0.08183705 0.9808928 -0.4396264 -0.2024273 0.8809923 -0.6189862 -0.3059808 0.7220737 -0.7566137 -0.3854401 0.514967 -0.8431301 -0.4353904 0.2737861 -0.8726391 -0.4524273 0.01496702 -0.8431301 -0.4353904 -0.2438519 -0.7566138 -0.3854401 -0.4850329 -0.6189864 -0.305981 -0.6921396 -0.4396267 -0.2024275 -0.8510583 -0.2307579 -0.08183717 -0.9509588 0.8862954 -6.37465 -2.005544</float_array>
          <technique_common>
            <accessor source="#Sphere_006-mesh-positions-array" count="135" stride="3">
              <param name="X" type="float"/>
              <param name="Y" type="float"/>
              <param name="Z" type="float"/>
            </accessor>
          </technique_common>
        </source>
        <source id="Sphere_006-mesh-normals">
          <float_array id="Sphere_006-mesh-normals-array" count="792">-0.8968089 0.2402994 0.3714703 -0.3806875 0.1020048 0.9190605 -0.7760134 0.2079321 -0.5954558 -0.9582092 0.2567514 0.1261507 -0.600821 0.1609895 0.7830049 -0.6008209 0.1609895 -0.783005 -0.9582092 0.2567513 -0.1261506 -0.7760129 0.2079325 0.5954563 -0.3806877 0.1020048 -0.9190605 -0.8968088 0.2402995 -0.3714705 -0.4398314 0.4398314 -0.7830049 -0.7014577 0.701458 -0.1261506 -0.568081 0.5680809 0.5954563 -0.2786829 0.2786827 -0.9190603 -0.6565096 0.6565095 -0.3714708 -0.6565095 0.6565098 0.3714703 -0.2786827 0.2786826 0.9190605 -0.5680812 0.5680814 -0.5954555 -0.7014579 0.7014577 0.1261503 -0.4398316 0.4398316 0.7830048 -0.1020045 0.3806874 0.9190605 -0.2079325 0.7760137 -0.5954552 -0.2567515 0.9582092 0.1261505 -0.1609894 0.6008207 0.7830051 -0.1609894 0.6008211 -0.7830048 -0.2567514 0.9582093 -0.1261498 -0.2079323 0.7760131 0.5954561 -0.102005 0.3806877 -0.9190604 -0.2402993 0.8968089 -0.3714703 -0.2402993 0.8968086 0.3714708 0.1020051 0.3806877 -0.9190604 0.2402992 0.8968088 -0.3714703 0.2402994 0.8968086 0.3714709 0.1020044 0.3806876 0.9190605 0.2079324 0.7760131 -0.5954559 0.2567515 0.9582092 0.1261502 0.1609898 0.6008209 0.7830049 0.1609894 0.6008214 -0.7830047 0.2567514 0.9582093 -0.1261501 0.2079324 0.7760133 0.5954558 0.4398313 0.4398314 0.7830051 0.4398314 0.4398311 -0.7830051 0.7014579 0.7014577 -0.1261502 0.5680811 0.5680813 0.5954557 0.2786827 0.2786828 -0.9190603 0.6565096 0.6565097 -0.3714704 0.6565097 0.6565094 0.3714708 0.2786829 0.2786828 0.9190604 0.5680812 0.5680815 -0.5954555 0.7014577 0.7014578 0.1261505 0.3806877 0.1020048 0.9190604 0.7760135 0.2079318 -0.5954557 0.9582093 0.2567514 0.1261503 0.6008207 0.1609892 0.7830051 0.6008207 0.1609895 -0.7830051 0.9582092 0.2567514 -0.1261503 0.776013 0.2079322 0.5954561 0.3806878 0.1020047 -0.9190603 0.8968089 0.2402993 -0.3714703 0.8968088 0.2402992 0.3714706 0.7760132 -0.2079325 0.595456 0.3806878 -0.102005 -0.9190603 0.8968089 -0.2402995 -0.3714702 0.8968086 -0.2402994 0.3714707 0.3806878 -0.1020051 0.9190604 0.7760134 -0.2079319 -0.5954557 0.9582092 -0.2567514 0.1261506 0.6008206 -0.1609894 0.7830052 0.6008207 -0.1609895 -0.783005 0.9582093 -0.2567514 -0.1261504 0.4398313 -0.4398314 0.783005 0.4398316 -0.4398314 -0.7830048 0.7014577 -0.701458 -0.1261503 0.5680809 -0.5680812 0.5954561 0.2786826 -0.2786828 -0.9190604 0.6565097 -0.6565097 -0.3714702 0.6565093 -0.6565097 0.3714708 0.2786828 -0.2786827 0.9190603 0.5680813 -0.5680815 -0.5954554 0.7014576 -0.701458 0.1261505 0.2402991 -0.8968088 0.3714705 0.1020053 -0.3806878 0.9190603 0.2079321 -0.7760134 -0.5954557 0.2567513 -0.9582093 0.1261501 0.1609891 -0.6008208 0.783005 0.1609895 -0.6008208 -0.7830049 0.2567512 -0.9582093 -0.12615 0.2079318 -0.7760134 0.5954559 0.1020053 -0.3806878 -0.9190602 0.2402991 -0.8968089 -0.3714703 -0.2079322 -0.7760132 0.595456 -0.1020053 -0.3806877 -0.9190604 -0.2402992 -0.8968088 -0.3714703 -0.2402991 -0.8968083 0.3714718 -0.1020056 -0.3806878 0.9190603 -0.2079323 -0.7760137 -0.5954552 -0.2567515 -0.9582092 0.1261505 -0.1609897 -0.6008207 0.7830051 -0.1609894 -0.600821 -0.7830049 -0.2567517 -0.9582092 -0.1261497 -0.701458 -0.7014577 0.1261499 -0.4398312 -0.4398312 0.7830051 -0.4398314 -0.4398312 -0.7830051 -0.701458 -0.7014577 -0.12615 -0.5680814 -0.568081 0.5954558 -0.2786827 -0.2786827 -0.9190605 -0.6565096 -0.6565094 -0.3714709 -0.6565095 -0.6565095 0.371471 -0.2786837 -0.2786826 0.9190602 -0.5680815 -0.5680812 -0.5954555 -0.130447 0.03495311 -0.990839 -0.1304469 0.03495311 0.9908391 -0.09549325 0.09549361 0.9908391 -0.09549337 0.09549355 -0.9908391 -0.03495353 0.1304466 0.990839 -0.03495192 0.1304467 -0.9908391 0.03495347 0.1304465 0.990839 0.03495234 0.1304467 -0.990839 0.09549307 0.09549343 0.9908391 0.09549301 0.09549367 -0.9908391 0.130447 0.03495305 -0.9908391 0.1304466 0.03495299 0.990839 0.1304467 -0.03495305 0.9908391 0.130447 -0.03495311 -0.990839 0.09549325 -0.09549361 0.9908391 0.09549301 -0.09549367 -0.9908391 0.03495234 -0.1304467 -0.990839 0.03495359 -0.1304468 0.9908391 -0.03495359 -0.1304468 0.9908391 -0.03495234 -0.1304467 -0.9908391 -0.09549343 -0.09549373 0.9908391 -0.09549301 -0.09549367 -0.9908391 -0.8968088 -0.2402998 0.3714702 -0.1304469 -0.03495317 -0.990839 -0.3806873 -0.1020051 0.9190606 -0.7760133 -0.2079322 -0.5954557 -0.9582092 -0.2567515 0.1261503 -0.6008207 -0.1609895 0.7830052 -0.6008208 -0.1609894 -0.7830049 -0.9582092 -0.2567517 -0.1261503 -0.7760131 -0.2079324 0.595456 -0.380688 -0.1020051 -0.9190603 -0.130447 -0.03495317 0.9908391 -0.8968088 -0.2402996 -0.3714705 -0.896809 0.2402991 0.3714702 -0.3806875 0.1020051 0.9190605 -0.7760133 0.2079322 -0.5954559 -0.9582092 0.2567512 0.1261508 -0.600821 0.1609895 0.7830048 -0.6008211 0.1609894 -0.7830047 -0.9582092 0.2567517 -0.1261502 -0.7760131 0.2079319 0.5954563 -0.3806877 0.1020052 -0.9190603 -0.896809 0.2402991 -0.3714702 -0.4398317 0.4398316 -0.7830046 -0.7014579 0.7014577 -0.1261506 -0.5680809 0.568081 0.5954563 -0.2786828 0.2786826 -0.9190604 -0.6565098 0.6565098 -0.37147 -0.6565097 0.6565096 0.3714704 -0.2786829 0.2786825 0.9190603 -0.5680813 0.568081 -0.5954558 -0.7014577 0.7014578 0.1261512 -0.4398314 0.4398314 0.7830051 -0.1020048 0.3806875 0.9190604 -0.2079318 0.7760133 -0.595456 -0.2567514 0.9582093 0.1261498 -0.1609897 0.6008207 0.783005 -0.1609892 0.6008213 -0.7830048 -0.2567515 0.9582092 -0.1261506 -0.2079322 0.7760131 0.595456 -0.1020042 0.3806877 -0.9190604 -0.2402993 0.8968086 -0.3714712 -0.2402993 0.8968088 0.3714703 0.1020052 0.3806877 -0.9190603 0.2402994 0.8968086 -0.3714708 0.2402992 0.8968085 0.3714712 0.1020048 0.3806874 0.9190605 0.2079319 0.7760136 -0.5954557 0.2567514 0.9582092 0.1261498 0.1609897 0.6008207 0.783005 0.1609897 0.6008203 -0.7830054 0.2567515 0.9582092 -0.1261506 0.2079322 0.7760132 0.595456 0.4398312 0.4398313 0.7830051 0.4398317 0.4398317 -0.7830047 0.7014578 0.7014579 -0.1261503 0.5680811 0.5680807 0.5954563 0.2786834 0.2786827 -0.9190601 0.6565096 0.6565098 -0.3714702 0.6565095 0.6565095 0.3714708 0.2786827 0.2786825 0.9190604 0.5680813 0.568081 -0.5954558 0.701458 0.7014577 0.1261502 0.3806876 0.1020048 0.9190605 0.7760133 0.2079322 -0.5954557 0.9582092 0.2567513 0.1261503 0.6008206 0.1609894 0.7830052 0.6008209 0.1609895 -0.7830049 0.9582092 0.2567512 -0.1261503 0.7760134 0.207932 0.5954558 0.3806878 0.1020052 -0.9190603 0.896809 0.2402991 -0.3714702 0.8968088 0.2402991 0.3714708 0.7760133 -0.2079323 0.5954559 0.3806878 -0.1020047 -0.9190603 0.896809 -0.2402991 -0.3714702 0.8968089 -0.2402991 0.3714706 0.3806876 -0.102005 0.9190604 0.7760133 -0.2079322 -0.5954557 0.9582092 -0.2567515 0.1261503 0.6008208 -0.1609894 0.7830049 0.6008209 -0.1609894 -0.7830049 0.9582092 -0.2567514 -0.1261506 0.439831 -0.4398314 0.7830051 0.4398308 -0.4398314 -0.7830053 0.7014577 -0.701458 -0.1261505 0.5680811 -0.5680813 0.5954558 0.2786828 -0.2786828 -0.9190603 0.6565095 -0.6565097 -0.3714705 0.6565094 -0.6565095 0.3714709 0.2786824 -0.2786827 0.9190604 0.5680809 -0.5680816 -0.5954558 0.7014577 -0.701458 0.1261503 0.2402991 -0.8968085 0.3714712 0.1020049 -0.3806877 0.9190603 0.2079319 -0.7760136 -0.5954556 0.2567512 -0.9582093 0.1261498 0.1609895 -0.6008208 0.783005 0.1609896 -0.6008207 -0.7830051 0.2567513 -0.9582093 -0.1261501 0.2079319 -0.776013 0.5954562 0.1020051 -0.3806875 -0.9190605 0.2402991 -0.8968089 -0.3714704 -0.2079322 -0.7760136 0.5954554 -0.102006 -0.3806877 -0.9190602 -0.2402994 -0.896809 -0.3714699 -0.2402994 -0.8968089 0.3714703 -0.1020049 -0.3806877 0.9190603 -0.2079321 -0.7760131 -0.595456 -0.2567517 -0.9582092 0.1261498 -0.1609893 -0.6008206 0.7830052 -0.1609894 -0.6008207 -0.783005 -0.2567515 -0.9582092 -0.1261506 -0.701458 -0.7014576 0.1261501 -0.4398314 -0.4398311 0.7830051 -0.4398316 -0.4398314 -0.7830049 -0.701458 -0.7014577 -0.1261499 -0.5680813 -0.5680812 0.5954558 -0.2786834 -0.2786827 -0.9190602 -0.6565101 -0.6565095 -0.37147 -0.6565096 -0.6565093 0.3714711 -0.2786824 -0.2786828 0.9190604 -0.5680814 -0.5680812 -0.5954556 -0.8968088 -0.2402991 0.3714708 -0.3806876 -0.1020052 0.9190603 -0.7760134 -0.2079326 -0.5954557 -0.9582092 -0.2567516 0.1261507 -0.600821 -0.1609898 0.7830047 -0.600821 -0.1609895 -0.7830048 -0.9582092 -0.2567517 -0.1261503 -0.776013 -0.2079325 0.5954562 -0.3806869 -0.1020052 -0.9190607 -0.8968089 -0.2402995 -0.3714702</float_array>
          <technique_common>
            <accessor source="#Sphere_006-mesh-normals-array" count="264" stride="3">
              <param name="X" type="float"/>
              <param name="Y" type="float"/>
              <param name="Z" type="float"/>
            </accessor>
          </technique_common>
        </source>
        <vertices id="Sphere_006-mesh-vertices">
          <input semantic="POSITION" source="#Sphere_006-mesh-positions"/>
        </vertices>
        <polylist material="Material_006-material" count="264">
          <input semantic="VERTEX" source="#Sphere_006-mesh-vertices" offset="0"/>
          <input semantic="NORMAL" source="#Sphere_006-mesh-normals" offset="1"/>
          <vcount>3 3 3 3 3 3 3 3 3 3 3 3 3 3 3 3 3 3 3 3 3 3 3 3 3 3 3 3 3 3 3 3 3 3 3 3 3 3 3 3 3 3 3 3 3 3 3 3 3 3 3 3 3 3 3 3 3 3 3 3 3 3 3 3 3 3 3 3 3 3 3 3 3 3 3 3 3 3 3 3 3 3 3 3 3 3 3 3 3 3 3 3 3 3 3 3 3 3 3 3 3 3 3 3 3 3 3 3 3 3 3 3 3 3 3 3 3 3 3 3 3 3 3 3 3 3 3 3 3 3 3 3 3 3 3 3 3 3 3 3 3 3 3 3 3 3 3 3 3 3 3 3 3 3 3 3 3 3 3 3 3 3 3 3 3 3 3 3 3 3 3 3 3 3 3 3 3 3 3 3 3 3 3 3 3 3 3 3 3 3 3 3 3 3 3 3 3 3 3 3 3 3 3 3 3 3 3 3 3 3 3 3 3 3 3 3 3 3 3 3 3 3 3 3 3 3 3 3 3 3 3 3 3 3 3 3 3 3 3 3 3 3 3 3 3 3 3 3 3 3 3 3 3 3 3 3 3 3 3 3 3 3 3 3 </vcount>
          <p>3 0 14 0 15 0 0 1 11 1 12 1 7 2 18 2 19 2 5 3 4 3 15 3 2 4 1 4 12 4 9 5 8 5 19 5 5 6 16 6 17 6 3 7 2 7 13 7 9 8 20 8 21 8 7 9 6 9 17 9 19 10 31 10 32 10 16 11 28 11 29 11 14 12 13 12 25 12 20 13 32 13 33 13 17 14 29 14 30 14 15 15 14 15 26 15 11 16 23 16 24 16 18 17 30 17 31 17 15 18 27 18 28 18 13 19 12 19 24 19 24 20 23 20 34 20 31 21 30 21 41 21 27 22 38 22 39 22 25 23 24 23 35 23 32 24 31 24 42 24 28 25 39 25 40 25 26 26 25 26 36 26 33 27 32 27 43 27 29 28 40 28 41 28 27 29 26 29 37 29 44 30 43 30 54 30 41 31 40 31 51 31 37 32 48 32 49 32 34 33 45 33 46 33 41 34 52 34 53 34 38 35 49 35 50 35 35 36 46 36 47 36 43 37 42 37 53 37 39 38 50 38 51 38 36 39 47 39 48 39 47 40 46 40 58 40 54 41 53 41 65 41 50 42 62 42 63 42 47 43 59 43 60 43 54 44 66 44 67 44 52 45 51 45 63 45 48 46 60 46 61 46 45 47 57 47 58 47 53 48 52 48 64 48 50 49 49 49 61 49 57 50 68 50 69 50 65 51 64 51 75 51 62 52 61 52 72 52 59 53 58 53 69 53 66 54 65 54 76 54 62 55 73 55 74 55 59 56 70 56 71 56 66 57 77 57 78 57 63 58 74 58 75 58 60 59 71 59 72 59 70 60 81 60 82 60 77 61 88 61 89 61 75 62 74 62 85 62 71 63 82 63 83 63 68 64 79 64 80 64 75 65 86 65 87 65 73 66 72 66 83 66 70 67 69 67 80 67 77 68 76 68 87 68 73 69 84 69 85 69 80 70 91 70 92 70 88 71 87 71 98 71 84 72 95 72 96 72 81 73 92 73 93 73 88 74 99 74 100 74 86 75 85 75 96 75 82 76 93 76 94 76 80 77 79 77 90 77 86 78 97 78 98 78 84 79 83 79 94 79 94 80 93 80 104 80 90 81 101 81 102 81 97 82 108 82 109 82 95 83 94 83 105 83 92 84 91 84 102 84 99 85 98 85 109 85 95 86 106 86 107 86 92 87 103 87 104 87 99 88 110 88 111 88 97 89 96 89 107 89 103 90 114 90 115 90 110 91 121 91 122 91 108 92 107 92 118 92 105 93 104 93 115 93 102 94 101 94 112 94 108 95 119 95 120 95 106 96 105 96 116 96 103 97 102 97 113 97 110 98 109 98 120 98 106 99 117 99 118 99 117 100 116 100 127 100 113 101 124 101 125 101 121 102 120 102 131 102 117 103 128 103 129 103 114 104 125 104 126 104 121 105 132 105 133 105 119 106 118 106 129 106 116 107 115 107 126 107 113 108 112 108 123 108 119 109 130 109 131 109 22 110 10 110 21 110 0 111 56 111 11 111 11 112 56 112 23 112 22 113 21 113 33 113 23 114 56 114 34 114 22 115 33 115 44 115 34 116 56 116 45 116 22 117 44 117 55 117 45 118 56 118 57 118 22 119 55 119 67 119 22 120 67 120 78 120 57 121 56 121 68 121 68 122 56 122 79 122 22 123 78 123 89 123 79 124 56 124 90 124 22 125 89 125 100 125 22 126 100 126 111 126 90 127 56 127 101 127 101 128 56 128 112 128 22 129 111 129 122 129 112 130 56 130 123 130 22 131 122 131 133 131 126 132 3 132 4 132 22 133 133 133 10 133 124 134 123 134 0 134 130 135 7 135 8 135 128 136 127 136 4 136 125 137 124 137 1 137 132 138 131 138 8 138 128 139 5 139 6 139 126 140 125 140 2 140 132 141 9 141 10 141 123 142 56 142 0 142 129 143 6 143 7 143 4 144 3 144 15 144 1 145 0 145 12 145 8 146 7 146 19 146 16 147 5 147 15 147 13 148 2 148 12 148 20 149 9 149 19 149 6 150 5 150 17 150 14 151 3 151 13 151 10 152 9 152 21 152 18 153 7 153 17 153 20 154 19 154 32 154 17 155 16 155 29 155 26 156 14 156 25 156 21 157 20 157 33 157 18 158 17 158 30 158 27 159 15 159 26 159 12 160 11 160 24 160 19 161 18 161 31 161 16 162 15 162 28 162 25 163 13 163 24 163 35 164 24 164 34 164 42 165 31 165 41 165 28 166 27 166 39 166 36 167 25 167 35 167 43 168 32 168 42 168 29 169 28 169 40 169 37 170 26 170 36 170 44 171 33 171 43 171 30 172 29 172 41 172 38 173 27 173 37 173 55 174 44 174 54 174 52 175 41 175 51 175 38 176 37 176 49 176 35 177 34 177 46 177 42 178 41 178 53 178 39 179 38 179 50 179 36 180 35 180 47 180 54 181 43 181 53 181 40 182 39 182 51 182 37 183 36 183 48 183 59 184 47 184 58 184 66 185 54 185 65 185 51 186 50 186 63 186 48 187 47 187 60 187 55 188 54 188 67 188 64 189 52 189 63 189 49 190 48 190 61 190 46 191 45 191 58 191 65 192 53 192 64 192 62 193 50 193 61 193 58 194 57 194 69 194 76 195 65 195 75 195 73 196 62 196 72 196 70 197 59 197 69 197 77 198 66 198 76 198 63 199 62 199 74 199 60 200 59 200 71 200 67 201 66 201 78 201 64 202 63 202 75 202 61 203 60 203 72 203 71 204 70 204 82 204 78 205 77 205 89 205 86 206 75 206 85 206 72 207 71 207 83 207 69 208 68 208 80 208 76 209 75 209 87 209 84 210 73 210 83 210 81 211 70 211 80 211 88 212 77 212 87 212 74 213 73 213 85 213 81 214 80 214 92 214 99 215 88 215 98 215 85 216 84 216 96 216 82 217 81 217 93 217 89 218 88 218 100 218 97 219 86 219 96 219 83 220 82 220 94 220 91 221 80 221 90 221 87 222 86 222 98 222 95 223 84 223 94 223 105 224 94 224 104 224 91 225 90 225 102 225 98 226 97 226 109 226 106 227 95 227 105 227 103 228 92 228 102 228 110 229 99 229 109 229 96 230 95 230 107 230 93 231 92 231 104 231 100 232 99 232 111 232 108 233 97 233 107 233 104 234 103 234 115 234 111 235 110 235 122 235 119 236 108 236 118 236 116 237 105 237 115 237 113 238 102 238 112 238 109 239 108 239 120 239 117 240 106 240 116 240 114 241 103 241 113 241 121 242 110 242 120 242 107 243 106 243 118 243 128 244 117 244 127 244 114 245 113 245 125 245 132 246 121 246 131 246 118 247 117 247 129 247 115 248 114 248 126 248 122 249 121 249 133 249 130 250 119 250 129 250 127 251 116 251 126 251 124 252 113 252 123 252 120 253 119 253 131 253 127 254 126 254 4 254 1 255 124 255 0 255 131 256 130 256 8 256 5 257 128 257 4 257 2 258 125 258 1 258 9 259 132 259 8 259 129 260 128 260 6 260 3 261 126 261 2 261 133 262 132 262 10 262 130 263 129 263 7 263</p>
        </polylist>
      </mesh>
    </geometry>
    <geometry id="Sphere_005-mesh" name="Sphere.005">
      <mesh>
        <source id="Sphere_005-mesh-positions">
          <float_array id="Sphere_005-mesh-positions-array" count="402">-0.2588186 0 0.9659258 -0.4999996 0 0.8660253 -0.7071064 0 0.7071067 -0.8660251 0 0.4999999 -0.9659255 0 0.258819 -0.9999997 0 0 -0.9659255 0 -0.258819 -0.8660252 0 -0.5 -0.7071066 0 -0.7071067 -0.4999998 0 -0.8660253 -0.258819 0 -0.9659258 -0.2241435 0.1294093 0.9659258 -0.4330124 0.2499997 0.8660253 -0.6123721 0.3535531 0.7071067 -0.7499997 0.4330124 0.4999999 -0.836516 0.4829626 0.258819 -0.8660251 0.4999997 0 -0.836516 0.4829627 -0.258819 -0.7499998 0.4330125 -0.5 -0.6123723 0.3535532 -0.7071067 -0.4330126 0.2499998 -0.8660253 -0.2241438 0.1294094 -0.9659258 0 0 -1 -0.1294093 0.2241435 0.9659258 -0.2499998 0.4330123 0.8660253 -0.3535532 0.6123721 0.7071067 -0.4330125 0.7499997 0.4999999 -0.4829627 0.8365159 0.258819 -0.4999998 0.866025 0 -0.4829627 0.8365159 -0.258819 -0.4330126 0.7499997 -0.5 -0.3535532 0.6123722 -0.7071067 -0.2499999 0.4330125 -0.8660253 -0.1294094 0.2241438 -0.9659258 0 0.2588186 0.9659258 0 0.4999995 0.8660253 0 0.7071064 0.7071067 0 0.866025 0.4999999 0 0.9659254 0.258819 0 0.9999995 0 0 0.9659255 -0.258819 0 0.866025 -0.5 0 0.7071065 -0.7071067 0 0.4999997 -0.8660253 0 0.2588189 -0.9659258 0.1294093 0.2241435 0.9659258 0.2499998 0.4330122 0.8660253 0.3535532 0.6123721 0.7071067 0.4330125 0.7499996 0.4999999 0.4829627 0.8365159 0.258819 0.4999998 0.866025 0 0.4829627 0.836516 -0.258819 0.4330126 0.7499997 -0.5 0.3535532 0.6123722 -0.7071067 0.2499999 0.4330124 -0.8660253 0.1294094 0.2241437 -0.9659258 -3.46566e-7 -2.56981e-7 1 0.2241435 0.1294093 0.9659258 0.4330123 0.2499997 0.8660253 0.6123721 0.3535531 0.7071067 0.7499996 0.4330124 0.4999999 0.836516 0.4829626 0.258819 0.866025 0.4999997 0 0.836516 0.4829626 -0.258819 0.7499997 0.4330124 -0.5 0.6123722 0.3535532 -0.7071067 0.4330125 0.2499998 -0.8660253 0.2241438 0.1294094 -0.9659258 0.2588186 0 0.9659258 0.4999995 0 0.8660253 0.7071064 -1.37771e-7 0.7071067 0.8660249 0 0.4999999 0.9659254 0 0.258819 0.9999995 -1.37771e-7 0 0.9659254 0 -0.258819 0.866025 0 -0.5 0.7071065 0 -0.7071067 0.4999997 -1.2287e-7 -0.8660253 0.2588189 0 -0.9659258 0.2241435 -0.1294093 0.9659258 0.4330122 -0.2499998 0.8660253 0.612372 -0.3535533 0.7071067 0.7499995 -0.4330126 0.4999999 0.8365159 -0.4829628 0.258819 0.8660249 -0.4999999 0 0.8365159 -0.4829628 -0.258819 0.7499997 -0.4330126 -0.5 0.6123722 -0.3535534 -0.7071067 0.4330124 -0.25 -0.8660253 0.2241438 -0.1294095 -0.9659258 0.1294093 -0.2241435 0.9659258 0.2499997 -0.4330123 0.8660253 0.353553 -0.6123722 0.7071067 0.4330124 -0.7499997 0.4999999 0.4829626 -0.836516 0.258819 0.4999996 -0.8660251 0 0.4829626 -0.836516 -0.258819 0.4330124 -0.7499998 -0.5 0.3535532 -0.6123723 -0.7071067 0.2499997 -0.4330126 -0.8660253 0.1294094 -0.2241438 -0.9659258 0 -0.2588186 0.9659258 0 -0.4999995 0.8660253 -1.48918e-7 -0.7071064 0.7071067 0 -0.8660249 0.4999999 0 -0.9659255 0.258819 -1.7872e-7 -0.9999995 0 0 -0.9659255 -0.258819 0 -0.8660251 -0.5 0 -0.7071066 -0.7071067 0 -0.4999998 -0.8660253 0 -0.258819 -0.9659258 -0.1294093 -0.2241435 0.9659258 -0.2499998 -0.4330123 0.8660253 -0.3535532 -0.612372 0.7071067 -0.4330125 -0.7499995 0.4999999 -0.4829628 -0.8365159 0.258819 -0.4999999 -0.8660249 0 -0.4829628 -0.8365159 -0.258819 -0.4330126 -0.7499997 -0.5 -0.3535533 -0.6123723 -0.7071067 -0.25 -0.4330125 -0.8660253 -0.1294094 -0.2241438 -0.9659258 -0.2241435 -0.1294093 0.9659258 -0.4330123 -0.2499997 0.8660253 -0.6123721 -0.3535531 0.7071067 -0.7499996 -0.4330124 0.4999999 -0.836516 -0.4829626 0.258819 -0.866025 -0.4999996 0 -0.836516 -0.4829626 -0.258819 -0.7499997 -0.4330124 -0.5 -0.6123723 -0.3535533 -0.7071067 -0.4330126 -0.2499998 -0.8660253 -0.2241438 -0.1294095 -0.9659258</float_array>
          <technique_common>
            <accessor source="#Sphere_005-mesh-positions-array" count="134" stride="3">
              <param name="X" type="float"/>
              <param name="Y" type="float"/>
              <param name="Z" type="float"/>
            </accessor>
          </technique_common>
        </source>
        <source id="Sphere_005-mesh-normals">
          <float_array id="Sphere_005-mesh-normals-array" count="792">-0.8968089 0.2402994 0.3714702 -0.3806871 0.1020048 0.9190606 -0.7760133 0.2079322 -0.5954558 -0.9582092 0.2567512 0.1261507 -0.6008208 0.1609895 0.7830049 -0.6008211 0.1609895 -0.7830047 -0.9582092 0.2567513 -0.1261504 -0.7760132 0.2079321 0.595456 -0.3806875 0.102005 -0.9190604 -0.896809 0.2402991 -0.3714702 -0.4398313 0.4398318 -0.7830048 -0.7014578 0.7014577 -0.1261506 -0.5680812 0.5680809 0.595456 -0.2786825 0.2786827 -0.9190604 -0.6565095 0.6565098 -0.3714703 -0.6565096 0.6565097 0.3714703 -0.2786836 0.2786824 0.9190602 -0.5680812 0.568081 -0.5954561 -0.7014578 0.7014579 0.1261504 -0.4398318 0.4398311 0.7830048 -0.1020053 0.3806875 0.9190604 -0.207932 0.776013 -0.5954563 -0.2567515 0.9582093 0.1261501 -0.1609892 0.6008208 0.7830051 -0.1609896 0.6008213 -0.7830047 -0.2567514 0.9582093 -0.1261498 -0.2079323 0.7760133 0.5954559 -0.1020046 0.3806877 -0.9190604 -0.2402994 0.8968088 -0.3714703 -0.2402992 0.8968091 0.37147 0.102005 0.3806878 -0.9190604 0.2402992 0.8968089 -0.3714703 0.2402992 0.8968086 0.3714709 0.1020053 0.3806874 0.9190605 0.2079322 0.7760131 -0.5954562 0.2567514 0.9582092 0.1261505 0.1609897 0.6008206 0.7830051 0.1609897 0.600821 -0.7830048 0.2567514 0.9582092 -0.1261503 0.2079323 0.7760134 0.5954555 0.4398314 0.4398312 0.783005 0.4398317 0.4398313 -0.7830048 0.7014579 0.7014577 -0.1261505 0.5680813 0.568081 0.5954558 0.2786822 0.2786828 -0.9190605 0.6565097 0.6565093 -0.3714708 0.6565096 0.6565096 0.3714705 0.2786836 0.2786825 0.9190601 0.5680812 0.5680812 -0.5954558 0.7014579 0.7014577 0.1261503 0.3806872 0.1020051 0.9190605 0.7760133 0.2079319 -0.5954559 0.9582093 0.2567512 0.1261504 0.6008206 0.1609895 0.7830052 0.6008214 0.1609894 -0.7830047 0.9582092 0.2567513 -0.1261504 0.7760133 0.2079321 0.5954557 0.3806879 0.1020048 -0.9190603 0.896809 0.2402991 -0.3714702 0.8968088 0.2402991 0.3714706 0.7760131 -0.2079325 0.5954558 0.3806879 -0.102005 -0.9190602 0.896809 -0.2402991 -0.3714703 0.8968088 -0.2402992 0.3714707 0.3806877 -0.1020048 0.9190604 0.7760133 -0.2079325 -0.5954557 0.9582092 -0.2567515 0.1261506 0.6008207 -0.1609894 0.783005 0.600821 -0.1609894 -0.7830049 0.9582093 -0.2567514 -0.1261503 0.4398311 -0.4398311 0.7830052 0.4398312 -0.4398316 -0.7830051 0.7014577 -0.701458 -0.1261505 0.5680809 -0.5680814 0.5954558 0.2786826 -0.2786828 -0.9190604 0.6565096 -0.6565096 -0.3714703 0.6565094 -0.6565096 0.3714709 0.2786824 -0.2786828 0.9190605 0.5680813 -0.5680814 -0.5954554 0.7014577 -0.7014579 0.1261501 0.240299 -0.8968086 0.3714709 0.1020053 -0.3806874 0.9190605 0.2079322 -0.7760136 -0.5954554 0.2567513 -0.9582092 0.1261506 0.1609892 -0.6008207 0.7830051 0.1609895 -0.6008208 -0.783005 0.2567512 -0.9582094 -0.1261499 0.2079318 -0.7760134 0.5954557 0.1020048 -0.3806878 -0.9190604 0.2402992 -0.8968089 -0.3714703 -0.2079322 -0.776013 0.5954561 -0.1020048 -0.3806877 -0.9190604 -0.2402994 -0.8968088 -0.3714703 -0.2402992 -0.8968088 0.3714705 -0.1020053 -0.3806876 0.9190604 -0.2079324 -0.7760134 -0.5954556 -0.2567516 -0.9582092 0.1261501 -0.1609893 -0.6008207 0.783005 -0.1609896 -0.600821 -0.7830048 -0.2567517 -0.9582092 -0.1261505 -0.7014579 -0.7014577 0.1261503 -0.4398317 -0.4398314 0.7830049 -0.4398317 -0.4398315 -0.7830048 -0.701458 -0.7014576 -0.1261503 -0.5680813 -0.5680812 0.5954557 -0.278683 -0.2786827 -0.9190602 -0.6565098 -0.6565095 -0.3714703 -0.6565095 -0.6565096 0.3714708 -0.2786824 -0.2786823 0.9190605 -0.5680814 -0.5680812 -0.5954555 -0.1304464 0.03495311 -0.9908391 -0.1304461 0.03495311 0.9908392 -0.09549415 0.09549361 0.990839 -0.09549385 0.09549379 -0.990839 -0.03495353 0.1304466 0.990839 -0.03495258 0.1304469 -0.990839 0.03495436 0.1304465 0.9908391 0.03495258 0.130447 -0.990839 0.09549397 0.09549343 0.990839 0.09549391 0.09549379 -0.990839 0.1304465 0.03495311 -0.990839 0.1304455 0.03495299 0.9908393 0.1304471 -0.03495299 0.990839 0.1304473 -0.03495317 -0.990839 0.09549319 -0.09549355 0.9908391 0.09549301 -0.09549385 -0.9908391 0.03495436 -0.130447 -0.990839 0.03495359 -0.1304467 0.9908391 -0.0349527 -0.1304468 0.9908391 -0.0349543 -0.1304469 -0.990839 -0.09549343 -0.09549373 0.9908391 -0.09549307 -0.09549385 -0.9908391 -0.8968086 -0.2402997 0.3714707 -0.1304474 -0.03495317 -0.990839 -0.3806874 -0.1020051 0.9190605 -0.7760133 -0.2079322 -0.5954557 -0.9582092 -0.2567513 0.1261503 -0.6008206 -0.1609895 0.7830052 -0.600821 -0.1609892 -0.7830049 -0.9582092 -0.2567517 -0.1261505 -0.7760134 -0.2079322 0.5954555 -0.3806875 -0.1020051 -0.9190604 -0.1304469 -0.03495317 0.9908391 -0.896809 -0.2402993 -0.3714702 -0.8968089 0.2402991 0.3714702 -0.3806877 0.1020049 0.9190605 -0.7760133 0.2079322 -0.5954558 -0.9582092 0.2567516 0.1261507 -0.600821 0.1609895 0.7830049 -0.600821 0.1609894 -0.7830048 -0.9582092 0.2567514 -0.1261504 -0.7760132 0.2079324 0.595456 -0.3806876 0.1020049 -0.9190604 -0.8968089 0.2402995 -0.3714703 -0.4398325 0.4398313 -0.7830044 -0.7014577 0.7014579 -0.1261505 -0.5680812 0.5680812 0.5954558 -0.2786829 0.2786828 -0.9190603 -0.6565098 0.6565096 -0.3714701 -0.6565096 0.6565096 0.3714704 -0.2786822 0.2786825 0.9190606 -0.5680809 0.5680814 -0.595456 -0.7014577 0.7014579 0.1261509 -0.4398308 0.4398315 0.7830053 -0.1020048 0.3806874 0.9190605 -0.2079322 0.7760135 -0.5954557 -0.2567514 0.9582092 0.1261503 -0.1609892 0.6008207 0.7830051 -0.1609896 0.600821 -0.7830048 -0.2567515 0.9582092 -0.1261505 -0.2079321 0.7760134 0.5954558 -0.102006 0.3806877 -0.9190603 -0.2402992 0.8968091 -0.3714699 -0.2402992 0.8968088 0.3714708 0.1020043 0.3806878 -0.9190605 0.2402993 0.8968091 -0.3714699 0.2402992 0.8968088 0.3714708 0.1020048 0.3806874 0.9190605 0.2079319 0.7760133 -0.5954559 0.2567514 0.9582093 0.1261499 0.1609894 0.6008207 0.7830051 0.1609894 0.600821 -0.7830049 0.2567514 0.9582092 -0.1261501 0.2079321 0.7760134 0.5954557 0.4398313 0.4398313 0.7830052 0.4398314 0.4398315 -0.7830048 0.7014578 0.7014579 -0.1261501 0.5680813 0.5680811 0.5954557 0.2786833 0.2786827 -0.9190602 0.6565097 0.6565097 -0.3714701 0.6565098 0.6565094 0.3714706 0.2786823 0.2786824 0.9190607 0.568081 0.5680813 -0.5954559 0.7014579 0.7014577 0.1261507 0.380688 0.1020048 0.9190602 0.7760134 0.2079322 -0.5954557 0.9582093 0.2567514 0.1261504 0.6008206 0.1609893 0.7830053 0.6008207 0.1609892 -0.7830051 0.9582093 0.2567512 -0.1261504 0.7760135 0.2079322 0.5954556 0.3806877 0.102005 -0.9190603 0.8968089 0.2402992 -0.3714703 0.8968088 0.2402991 0.3714706 0.7760135 -0.2079322 0.5954557 0.3806874 -0.102005 -0.9190605 0.8968089 -0.2402995 -0.3714703 0.8968086 -0.2402993 0.3714708 0.3806876 -0.102005 0.9190604 0.7760134 -0.2079316 -0.5954558 0.9582092 -0.2567514 0.1261503 0.6008207 -0.1609897 0.7830051 0.6008209 -0.1609894 -0.7830049 0.9582092 -0.2567515 -0.1261506 0.4398314 -0.4398314 0.7830049 0.4398308 -0.4398314 -0.7830053 0.7014577 -0.701458 -0.1261501 0.5680812 -0.5680812 0.5954557 0.2786825 -0.2786827 -0.9190604 0.6565096 -0.6565097 -0.3714703 0.6565096 -0.6565096 0.3714706 0.2786827 -0.2786825 0.9190604 0.568081 -0.5680813 -0.5954559 0.7014577 -0.701458 0.1261503 0.240299 -0.8968086 0.3714712 0.1020048 -0.3806875 0.9190604 0.2079319 -0.7760136 -0.5954557 0.2567512 -0.9582093 0.1261498 0.1609892 -0.6008207 0.7830051 0.1609892 -0.600821 -0.7830049 0.2567513 -0.9582092 -0.1261506 0.2079319 -0.7760136 0.5954555 0.1020051 -0.3806875 -0.9190604 0.240299 -0.8968089 -0.3714704 -0.2079322 -0.7760134 0.5954558 -0.1020043 -0.3806878 -0.9190605 -0.2402994 -0.8968091 -0.3714699 -0.2402993 -0.8968087 0.3714708 -0.1020049 -0.3806874 0.9190605 -0.2079319 -0.7760133 -0.5954559 -0.2567517 -0.9582091 0.1261503 -0.1609896 -0.6008207 0.7830049 -0.1609896 -0.600821 -0.7830049 -0.2567515 -0.9582092 -0.1261501 -0.701458 -0.7014577 0.1261503 -0.4398313 -0.4398313 0.7830052 -0.4398314 -0.4398313 -0.7830049 -0.7014579 -0.7014578 -0.1261503 -0.5680814 -0.5680812 0.5954555 -0.2786833 -0.2786827 -0.9190602 -0.6565098 -0.6565096 -0.3714702 -0.6565096 -0.6565093 0.3714711 -0.2786825 -0.2786825 0.9190605 -0.5680813 -0.5680814 -0.5954556 -0.8968089 -0.2402991 0.3714702 -0.3806876 -0.1020051 0.9190605 -0.7760134 -0.2079323 -0.5954557 -0.958209 -0.2567519 0.1261507 -0.6008209 -0.1609895 0.783005 -0.6008209 -0.1609899 -0.7830048 -0.9582092 -0.2567515 -0.1261504 -0.776013 -0.2079327 0.595456 -0.3806877 -0.1020049 -0.9190604 -0.8968088 -0.2402995 -0.3714703</float_array>
          <technique_common>
            <accessor source="#Sphere_005-mesh-normals-array" count="264" stride="3">
              <param name="X" type="float"/>
              <param name="Y" type="float"/>
              <param name="Z" type="float"/>
            </accessor>
          </technique_common>
        </source>
        <vertices id="Sphere_005-mesh-vertices">
          <input semantic="POSITION" source="#Sphere_005-mesh-positions"/>
        </vertices>
        <polylist material="Material_004-material" count="264">
          <input semantic="VERTEX" source="#Sphere_005-mesh-vertices" offset="0"/>
          <input semantic="NORMAL" source="#Sphere_005-mesh-normals" offset="1"/>
          <vcount>3 3 3 3 3 3 3 3 3 3 3 3 3 3 3 3 3 3 3 3 3 3 3 3 3 3 3 3 3 3 3 3 3 3 3 3 3 3 3 3 3 3 3 3 3 3 3 3 3 3 3 3 3 3 3 3 3 3 3 3 3 3 3 3 3 3 3 3 3 3 3 3 3 3 3 3 3 3 3 3 3 3 3 3 3 3 3 3 3 3 3 3 3 3 3 3 3 3 3 3 3 3 3 3 3 3 3 3 3 3 3 3 3 3 3 3 3 3 3 3 3 3 3 3 3 3 3 3 3 3 3 3 3 3 3 3 3 3 3 3 3 3 3 3 3 3 3 3 3 3 3 3 3 3 3 3 3 3 3 3 3 3 3 3 3 3 3 3 3 3 3 3 3 3 3 3 3 3 3 3 3 3 3 3 3 3 3 3 3 3 3 3 3 3 3 3 3 3 3 3 3 3 3 3 3 3 3 3 3 3 3 3 3 3 3 3 3 3 3 3 3 3 3 3 3 3 3 3 3 3 3 3 3 3 3 3 3 3 3 3 3 3 3 3 3 3 3 3 3 3 3 3 3 3 3 3 3 3 3 3 3 3 3 3 </vcount>
          <p>3 0 14 0 15 0 1 1 0 1 11 1 7 2 18 2 19 2 4 3 15 3 16 3 1 4 12 4 13 4 9 5 8 5 19 5 6 6 5 6 16 6 2 7 13 7 14 7 9 8 20 8 21 8 6 9 17 9 18 9 20 10 19 10 31 10 16 11 28 11 29 11 14 12 13 12 25 12 20 13 32 13 33 13 18 14 17 14 29 14 14 15 26 15 27 15 11 16 23 16 24 16 19 17 18 17 30 17 15 18 27 18 28 18 12 19 24 19 25 19 23 20 34 20 35 20 30 21 41 21 42 21 27 22 38 22 39 22 24 23 35 23 36 23 32 24 31 24 42 24 28 25 39 25 40 25 25 26 36 26 37 26 33 27 32 27 43 27 30 28 29 28 40 28 27 29 26 29 37 29 44 30 43 30 54 30 41 31 40 31 51 31 38 32 37 32 48 32 34 33 45 33 46 33 41 34 52 34 53 34 38 35 49 35 50 35 35 36 46 36 47 36 43 37 42 37 53 37 39 38 50 38 51 38 36 39 47 39 48 39 46 40 58 40 59 40 54 41 53 41 65 41 50 42 62 42 63 42 47 43 59 43 60 43 54 44 66 44 67 44 52 45 51 45 63 45 49 46 48 46 60 46 46 47 45 47 57 47 53 48 52 48 64 48 49 49 61 49 62 49 58 50 57 50 68 50 65 51 64 51 75 51 62 52 61 52 72 52 58 53 69 53 70 53 66 54 65 54 76 54 62 55 73 55 74 55 59 56 70 56 71 56 66 57 77 57 78 57 64 58 63 58 74 58 61 59 60 59 71 59 70 60 81 60 82 60 77 61 88 61 89 61 74 62 85 62 86 62 72 63 71 63 82 63 68 64 79 64 80 64 76 65 75 65 86 65 73 66 72 66 83 66 70 67 69 67 80 67 77 68 76 68 87 68 73 69 84 69 85 69 81 70 80 70 91 70 88 71 87 71 98 71 84 72 95 72 96 72 81 73 92 73 93 73 88 74 99 74 100 74 85 75 96 75 97 75 82 76 93 76 94 76 80 77 79 77 90 77 86 78 97 78 98 78 84 79 83 79 94 79 94 80 93 80 104 80 91 81 90 81 101 81 97 82 108 82 109 82 95 83 94 83 105 83 92 84 91 84 102 84 99 85 98 85 109 85 95 86 106 86 107 86 92 87 103 87 104 87 99 88 110 88 111 88 97 89 96 89 107 89 103 90 114 90 115 90 110 91 121 91 122 91 108 92 107 92 118 92 105 93 104 93 115 93 101 94 112 94 113 94 108 95 119 95 120 95 106 96 105 96 116 96 103 97 102 97 113 97 110 98 109 98 120 98 106 99 117 99 118 99 117 100 116 100 127 100 114 101 113 101 124 101 121 102 120 102 131 102 117 103 128 103 129 103 114 104 125 104 126 104 121 105 132 105 133 105 119 106 118 106 129 106 115 107 126 107 127 107 112 108 123 108 124 108 119 109 130 109 131 109 22 110 10 110 21 110 0 111 56 111 11 111 11 112 56 112 23 112 22 113 21 113 33 113 23 114 56 114 34 114 22 115 33 115 44 115 34 116 56 116 45 116 22 117 44 117 55 117 45 118 56 118 57 118 22 119 55 119 67 119 22 120 67 120 78 120 57 121 56 121 68 121 68 122 56 122 79 122 22 123 78 123 89 123 79 124 56 124 90 124 22 125 89 125 100 125 22 126 100 126 111 126 90 127 56 127 101 127 101 128 56 128 112 128 22 129 111 129 122 129 112 130 56 130 123 130 22 131 122 131 133 131 127 132 126 132 3 132 22 133 133 133 10 133 124 134 123 134 0 134 130 135 7 135 8 135 128 136 127 136 4 136 125 137 124 137 1 137 132 138 131 138 8 138 128 139 5 139 6 139 126 140 125 140 2 140 132 141 9 141 10 141 123 142 56 142 0 142 129 143 6 143 7 143 4 144 3 144 15 144 12 145 1 145 11 145 8 146 7 146 19 146 5 147 4 147 16 147 2 148 1 148 13 148 20 149 9 149 19 149 17 150 6 150 16 150 3 151 2 151 14 151 10 152 9 152 21 152 7 153 6 153 18 153 32 154 20 154 31 154 17 155 16 155 29 155 26 156 14 156 25 156 21 157 20 157 33 157 30 158 18 158 29 158 15 159 14 159 27 159 12 160 11 160 24 160 31 161 19 161 30 161 16 162 15 162 28 162 13 163 12 163 25 163 24 164 23 164 35 164 31 165 30 165 42 165 28 166 27 166 39 166 25 167 24 167 36 167 43 168 32 168 42 168 29 169 28 169 40 169 26 170 25 170 37 170 44 171 33 171 43 171 41 172 30 172 40 172 38 173 27 173 37 173 55 174 44 174 54 174 52 175 41 175 51 175 49 176 38 176 48 176 35 177 34 177 46 177 42 178 41 178 53 178 39 179 38 179 50 179 36 180 35 180 47 180 54 181 43 181 53 181 40 182 39 182 51 182 37 183 36 183 48 183 47 184 46 184 59 184 66 185 54 185 65 185 51 186 50 186 63 186 48 187 47 187 60 187 55 188 54 188 67 188 64 189 52 189 63 189 61 190 49 190 60 190 58 191 46 191 57 191 65 192 53 192 64 192 50 193 49 193 62 193 69 194 58 194 68 194 76 195 65 195 75 195 73 196 62 196 72 196 59 197 58 197 70 197 77 198 66 198 76 198 63 199 62 199 74 199 60 200 59 200 71 200 67 201 66 201 78 201 75 202 64 202 74 202 72 203 61 203 71 203 71 204 70 204 82 204 78 205 77 205 89 205 75 206 74 206 86 206 83 207 72 207 82 207 69 208 68 208 80 208 87 209 76 209 86 209 84 210 73 210 83 210 81 211 70 211 80 211 88 212 77 212 87 212 74 213 73 213 85 213 92 214 81 214 91 214 99 215 88 215 98 215 85 216 84 216 96 216 82 217 81 217 93 217 89 218 88 218 100 218 86 219 85 219 97 219 83 220 82 220 94 220 91 221 80 221 90 221 87 222 86 222 98 222 95 223 84 223 94 223 105 224 94 224 104 224 102 225 91 225 101 225 98 226 97 226 109 226 106 227 95 227 105 227 103 228 92 228 102 228 110 229 99 229 109 229 96 230 95 230 107 230 93 231 92 231 104 231 100 232 99 232 111 232 108 233 97 233 107 233 104 234 103 234 115 234 111 235 110 235 122 235 119 236 108 236 118 236 116 237 105 237 115 237 102 238 101 238 113 238 109 239 108 239 120 239 117 240 106 240 116 240 114 241 103 241 113 241 121 242 110 242 120 242 107 243 106 243 118 243 128 244 117 244 127 244 125 245 114 245 124 245 132 246 121 246 131 246 118 247 117 247 129 247 115 248 114 248 126 248 122 249 121 249 133 249 130 250 119 250 129 250 116 251 115 251 127 251 113 252 112 252 124 252 120 253 119 253 131 253 4 254 127 254 3 254 1 255 124 255 0 255 131 256 130 256 8 256 5 257 128 257 4 257 2 258 125 258 1 258 9 259 132 259 8 259 129 260 128 260 6 260 3 261 126 261 2 261 133 262 132 262 10 262 130 263 129 263 7 263</p>
        </polylist>
      </mesh>
    </geometry>
  </library_geometries>
  <library_controllers/>
  <library_visual_scenes>
    <visual_scene id="Scene" name="Scene">
      <node id="Sphere_005" name="Sphere_005" type="NODE">
        <matrix sid="transform">0.2481173 0 0 0 0 -1.08475e-8 -0.2481616 0 0 0.2481617 -1.08475e-8 0 0 0 0 1</matrix>
        <instance_geometry url="#Sphere_005-mesh" name="Sphere_005">
          <bind_material>
            <technique_common>
              <instance_material symbol="Material_004-material" target="#Material_004-material"/>
            </technique_common>
          </bind_material>
        </instance_geometry>
        <node id="Sphere_006" name="Sphere_006" type="NODE">
          <matrix sid="transform">0.6687171 -9.75925e-8 0 0.004423313 7.69342e-8 0.6687174 -3.31047e-7 -0.03181185 1.50115e-8 2.05559e-7 0.6687171 0.4434869 0 0 0 1</matrix>
          <instance_geometry url="#Sphere_006-mesh" name="Sphere_006">
            <bind_material>
              <technique_common>
                <instance_material symbol="Material_006-material" target="#Material_006-material"/>
              </technique_common>
            </bind_material>
          </instance_geometry>
        </node>
      </node>
    </visual_scene>
  </library_visual_scenes>
  <scene>
    <instance_visual_scene url="#Scene"/>
  </scene>
</COLLADA>