<?xml version="1.0" encoding="utf-8"?>
<COLLADA xmlns="http://www.collada.org/2005/11/COLLADASchema" version="1.4.1">
  <asset>
    <contributor>
      <author>Blender User</author>
      <authoring_tool>Blender 2.76.0 commit date:2015-10-11, commit time:06:55, hash:48f7dd6</authoring_tool>
    </contributor>
    <created>2016-07-13T20:48:20</created>
    <modified>2016-07-13T20:48:20</modified>
    <unit name="meter" meter="1"/>
    <up_axis>Z_UP</up_axis>
  </asset>
  <library_images/>
  <library_effects>
    <effect id="Material_006-effect">
      <profile_COMMON>
        <technique sid="common">
          <phong>
            <emission>
              <color sid="emission">0 0 0 1</color>
            </emission>
            <ambient>
              <color sid="ambient">0 0 0 1</color>
            </ambient>
            <diffuse>
              <color sid="diffuse">6.38916e-4 0.1615213 0.004998389 1</color>
            </diffuse>
            <specular>
              <color sid="specular">0.2054698 0.1415175 0.007943728 1</color>
            </specular>
            <shininess>
              <float sid="shininess">15</float>
            </shininess>
            <index_of_refraction>
              <float sid="index_of_refraction">1</float>
            </index_of_refraction>
          </phong>
        </technique>
      </profile_COMMON>
    </effect>
    <effect id="Material_004-effect">
      <profile_COMMON>
        <technique sid="common">
          <phong>
            <emission>
              <color sid="emission">0 0 0 1</color>
            </emission>
            <ambient>
              <color sid="ambient">0 0 0 1</color>
            </ambient>
            <diffuse>
              <color sid="diffuse">0.5013308 0.5013308 0.5013308 1</color>
            </diffuse>
            <specular>
              <color sid="specular">0.3410171 0.4135373 0.5 1</color>
            </specular>
            <shininess>
              <float sid="shininess">10</float>
            </shininess>
            <index_of_refraction>
              <float sid="index_of_refraction">1</float>
            </index_of_refraction>
          </phong>
        </technique>
      </profile_COMMON>
    </effect>
  </library_effects>
  <library_materials>
    <material id="Material_006-material" name="Material_006">
      <instance_effect url="#Material_006-effect"/>
    </material>
    <material id="Material_004-material" name="Material_004">
      <instance_effect url="#Material_004-effect"/>
    </material>
  </library_materials>
  <library_geometries>
    <geometry id="Sphere_003-mesh" name="Sphere.003">
      <mesh>
        <source id="Sphere_003-mesh-positions">
          <float_array id="Sphere_003-mesh-positions-array" count="402">-0.2540916 -0.5788059 0.7748678 -0.4957292 -0.5228882 0.6934252 -0.7035836 -0.4313369 0.5647268 -0.86349 -0.31039 0.3975433 -0.9645509 -0.168291 0.2032678 -0.9998793 -0.0147233 -0.004860043 -0.9670675 0.1398477 -0.2126567 -0.8683516 0.2848888 -0.4059613 -0.7104591 0.4105144 -0.5716002 -0.5041499 0.5081644 -0.6982854 -0.2634837 0.5711842 -0.7773838 -0.2175146 -0.682261 0.6980016 -0.425068 -0.7227478 0.5449312 -0.6036536 -0.7139812 0.3547245 -0.7411012 -0.6565571 0.1403439 -0.8280439 -0.5543904 -0.08360075 -0.8585568 -0.4144425 -0.3018482 -0.8305605 -0.2462515 -0.4995253 -0.7459629 -0.06127882 -0.6631606 -0.6105291 0.12787 -0.7816024 -0.4334887 0.3083048 -0.8467796 -0.2269067 0.4677291 -0.8542502 -0.004861474 0.5952783 -0.8035047 -0.1213966 -0.7569742 0.6420689 -0.239382 -0.8670831 0.4368771 -0.341054 -0.9181013 0.2019128 -0.4194836 -0.9065528 -0.04681134 -0.4693261 -0.8332243 -0.2923453 -0.4871848 -0.7031126 -0.5179565 -0.4718427 -0.5250855 -0.7082698 -0.4243451 -0.3112741 -0.8503158 -0.3479293 -0.07625055 -0.9344142 -0.2478026 0.1639699 -0.9548338 -0.1307886 0.3930159 -0.910183 0.008507788 -0.7829266 0.6220564 0.01157426 -0.9172187 0.398216 0.01385194 -0.9890041 0.1472377 0.01518565 -0.9933906 -0.1137742 0.01548445 -0.9300795 -0.3670328 0.014728 -0.8033843 -0.5952787 0.01296788 -0.6219401 -0.7829573 0.01032406 -0.3981118 -0.9172788 0.006976664 -0.1471529 -0.9890893 0.0031538 0.1138339 -0.9934948 -8.83978e-4 0.3670635 -0.9301956 0.1373909 -0.7531638 0.6433266 0.2605574 -0.8597217 0.4393071 0.3659673 -0.907691 0.2053493 0.4464372 -0.8938027 -0.04260253 0.4964832 -0.8190031 -0.2876511 0.5126945 -0.6883898 -0.5130966 0.4939666 -0.5108643 -0.7035756 0.4415757 -0.2985239 -0.846107 0.3590921 -0.06583976 -0.9309776 0.2521371 0.1713314 -0.9524038 0.1279992 0.3968263 -0.9089253 0.004861235 -0.5952792 0.8035045 0.2307184 -0.6756611 0.7001803 0.4408524 -0.7099977 0.54914 0.6209433 -0.6959496 0.3606767 0.7587176 -0.6344733 0.1476337 0.8447867 -0.5297589 -0.07546997 0.8732848 -0.3889423 -0.2934306 0.8422702 -0.2216196 -0.4913945 0.7538561 -0.03919458 -0.6558707 0.6140681 0.1459016 -0.7756503 0.4324322 0.3210554 -0.8425708 0.2213269 0.474329 -0.8520715 0.2634835 -0.5711851 0.7773835 0.5041496 -0.5081654 0.6982851 0.7104589 -0.4105158 0.5715997 0.8683515 -0.2848897 0.4059608 0.9670674 -0.1398487 0.2126563 0.9998793 0.01472234 0.004859685 0.9645509 0.1682901 -0.2032682 0.8634901 0.3103891 -0.3975437 0.7035838 0.4313355 -0.5647271 0.4957294 0.5228872 -0.6934254 0.2540919 0.578805 -0.7748683 0.2269065 -0.4677301 0.8542495 0.4334884 -0.3083062 0.8467791 0.6105289 -0.127871 0.7816022 0.7459627 0.06127738 0.6631601 0.8305605 0.2462506 0.4995248 0.8585568 0.4144416 0.3018479 0.8280439 0.5543895 0.0836004 0.7411013 0.6565561 -0.1403443 0.6036539 0.7139802 -0.3547249 0.4250681 0.7227469 -0.5449314 0.2175149 0.68226 -0.6980021 0.1307885 -0.3930168 0.9101824 0.2478024 -0.1639709 0.9548331 0.3479291 0.07624912 0.9344137 0.4243451 0.3112731 0.8503152 0.4718426 0.5250845 0.7082694 0.4871847 0.7031117 0.517956 0.4693261 0.8332234 0.2923448 0.4194836 0.9065518 0.04681086 0.3410541 0.9181004 -0.2019131 0.239382 0.8670821 -0.4368775 0.1213968 0.7569733 -0.6420691 8.84052e-4 -0.367065 0.9301949 -0.003153741 -0.1138353 0.9934942 -0.006976664 0.1471519 0.9890887 -0.010324 0.3981109 0.9172783 -0.01296788 0.6219392 0.7829571 -0.01472806 0.8033834 0.5952783 -0.01548445 0.930078 0.3670325 -0.01518559 0.9933896 0.1137739 -0.01385188 0.9890032 -0.147238 -0.01157426 0.9172177 -0.3982163 -0.008507728 0.7829256 -0.6220567 -0.127999 -0.3968277 0.9089246 -0.2521368 -0.1713323 0.9524032 -0.3590921 0.06583833 0.9309771 -0.4415755 0.298523 0.8461064 -0.4939666 0.5108633 0.7035751 -0.5126945 0.6883888 0.5130961 -0.4964831 0.8190022 0.2876506 -0.4464372 0.8938017 0.04260206 -0.3659673 0.9076901 -0.2053496 -0.2605575 0.8597207 -0.4393075 -0.1373909 0.7531629 -0.643327 -0.2213265 -0.4743304 0.8520709 -0.4324319 -0.3210564 0.8425703 -0.6140679 -0.1459031 0.7756498 -0.7538559 0.03919315 0.6558702 -0.8422701 0.2216186 0.4913941 -0.8732847 0.3889408 0.2934302 -0.8447866 0.5297575 0.07546961 -0.7587176 0.6344719 -0.1476342 -0.6209433 0.6959486 -0.360677 -0.4408526 0.7099967 -0.5491402 -0.2307186 0.6756601 -0.7001808</float_array>
          <technique_common>
            <accessor source="#Sphere_003-mesh-positions-array" count="134" stride="3">
              <param name="X" type="float"/>
              <param name="Y" type="float"/>
              <param name="Z" type="float"/>
            </accessor>
          </technique_common>
        </source>
        <source id="Sphere_003-mesh-normals">
          <float_array id="Sphere_003-mesh-normals-array" count="792">-0.8913562 -0.4273887 0.151073 -0.3746738 -0.6346521 0.6758967 -0.7757521 0.1759838 -0.6060019 -0.9536994 -0.2954767 -0.05613446 -0.5945717 -0.6042912 0.5303931 -0.6021844 0.3279212 -0.7279022 -0.954926 -0.1452876 -0.2588592 -0.7699642 -0.5329393 0.3509001 -0.3836078 0.4595417 -0.8010409 -0.8949682 0.01486748 -0.4458824 -0.4371086 0.1062746 -0.893108 -0.6916575 -0.4987758 -0.5223338 -0.5567533 -0.8192151 0.1375228 -0.2790126 0.3191033 -0.9057181 -0.6485689 -0.3159697 -0.692475 -0.6449581 -0.7582251 -0.09551882 -0.2700797 -0.77509 0.57122 -0.5625423 -0.110292 -0.819379 -0.6904311 -0.648964 -0.3196102 -0.4294984 -0.825936 0.365186 -0.09192097 -0.8544378 0.5113576 -0.1993755 -0.2720374 -0.9414059 -0.2419998 -0.8486847 -0.4702876 -0.1483191 -0.9511665 0.2707098 -0.1559297 -0.01895457 -0.9875864 -0.2432256 -0.6984956 -0.6730121 -0.193588 -0.9809606 0.01549607 -0.1008533 0.2397556 -0.9655807 -0.2288713 -0.5028926 -0.8334968 -0.2252615 -0.945149 -0.2365395 0.1031309 0.2427605 -0.9645888 0.2516682 -0.495815 -0.8311622 0.25528 -0.9380726 -0.2342053 0.1120634 -0.8514338 0.5123497 0.2164384 -0.2659123 -0.9393855 0.2714417 -0.8411244 -0.4677919 0.1736208 -0.946426 0.2722749 0.1660112 -0.0142132 -0.9860215 0.2702155 -0.6909357 -0.6705158 0.2222259 -0.9748378 0.0175178 0.4500598 -0.812983 0.3694658 0.4424493 0.1192301 -0.8888323 0.7110895 -0.4781152 -0.5155168 0.5792715 -0.802485 0.1430467 0.2782858 0.3273124 -0.9030082 0.6642927 -0.2966327 -0.6860935 0.6679033 -0.7388911 -0.08913666 0.2872194 -0.7668827 0.5739302 0.5734834 -0.09355854 -0.8138572 0.7123157 -0.6283054 -0.3127917 0.3866106 -0.6234396 0.6795994 0.7760875 0.1988418 -0.5984564 0.9624886 -0.2672525 -0.04681712 0.6069242 -0.5865944 0.536237 0.5993136 0.3456195 -0.7220599 0.961262 -0.1170628 -0.2495431 0.7818766 -0.5100833 0.358447 0.377678 0.4707551 -0.7973389 0.8984342 0.0412845 -0.4371634 0.9020458 -0.4009733 0.1597931 0.7757525 -0.1759831 0.6060017 0.3746747 0.6346522 -0.6758961 0.8913564 0.4273886 -0.151073 0.894968 -0.01486718 0.4458827 0.3836051 -0.4595413 0.8010424 0.7699646 0.5329387 -0.3509001 0.9549258 0.145288 0.2588591 0.6021841 -0.3279214 0.7279024 0.5945713 0.6042911 -0.5303936 0.9536995 0.2954764 0.05613476 0.4371075 -0.106275 0.8931084 0.4294985 0.8259359 -0.3651864 0.6904311 0.6489639 0.3196102 0.5625423 0.110292 0.819379 0.27008 0.7750895 -0.5712209 0.6449583 0.7582248 0.09551942 0.6485689 0.3159692 0.6924752 0.2790121 -0.3191033 0.9057182 0.5567532 0.8192152 -0.1375224 0.6916575 0.4987757 0.522334 0.2288717 0.502892 0.8334971 0.1008546 -0.2397562 0.9655804 0.193588 0.9809606 -0.01549619 0.243226 0.6984962 0.6730113 0.1559289 0.01895487 0.9875865 0.1483192 0.9511669 -0.2707085 0.2419992 0.8486854 0.4702867 0.1993758 0.2720369 0.941406 0.09192073 0.8544381 -0.5113573 0.2252607 0.9451486 0.2365412 -0.2164387 0.2659122 0.9393855 -0.1120631 0.8514339 -0.5123499 -0.2552793 0.9380727 0.2342054 -0.251669 0.4958146 0.8311622 -0.1031314 -0.2427608 0.9645886 -0.222226 0.9748379 -0.01751756 -0.2702155 0.6909354 0.6705161 -0.1660111 0.01421278 0.9860215 -0.1736208 0.9464263 -0.2722743 -0.2714412 0.8411244 0.4677922 -0.7110899 0.4781157 0.515516 -0.4424497 -0.1192305 0.8888322 -0.4500598 0.8129829 -0.3694661 -0.7123163 0.6283049 0.3127912 -0.5734838 0.09355831 0.813857 -0.2872192 0.7668837 -0.5739291 -0.6679038 0.7388905 0.08913648 -0.6642924 0.2966319 0.6860942 -0.2782852 -0.3273122 0.9030084 -0.5792723 0.8024847 -0.1430451 -0.1347311 0.5598246 -0.8175843 -0.1251018 -0.6198269 0.7747027 -0.08926182 -0.6679494 0.7388342 -0.09889006 0.5117012 -0.8534535 -0.02821338 -0.6951389 0.7183216 -0.03784424 0.4845125 -0.8739654 0.04168486 -0.6941094 0.7186617 0.03205418 0.4855421 -0.8736255 0.1017029 -0.6651373 0.7397627 0.09207218 0.5145146 -0.8525242 0.12613 0.5636664 -0.8163158 0.1357612 -0.615985 0.7759714 0.1347314 -0.5598229 0.8175855 0.1251012 0.619827 -0.7747027 0.09889191 -0.5117008 0.8534535 0.08925986 0.6679501 -0.7388338 0.02821421 0.6951384 -0.718322 0.03784537 -0.4845119 0.8739657 -0.03205388 -0.4855415 0.8736258 -0.04168462 0.6941095 -0.7186616 -0.09207308 -0.5145137 0.8525247 -0.1017027 0.6651372 -0.7397629 -0.8984341 -0.04128402 0.4371637 -0.1357607 0.6159844 -0.7759718 -0.3776771 -0.4707559 0.7973387 -0.7818759 0.5100836 -0.3584479 -0.9612619 0.1170632 0.2495432 -0.5993131 -0.3456187 0.7220607 -0.6069248 0.5865947 -0.5362361 -0.9624886 0.2672526 0.04681783 -0.7760875 -0.1988418 0.5984565 -0.3866111 0.6234399 -0.679599 -0.1261308 -0.5636673 0.8163151 -0.9020458 0.4009738 -0.1597924 -0.891356 -0.4273892 0.151073 -0.3746732 -0.6346526 0.6758966 -0.7757523 0.1759837 -0.6060017 -0.9536993 -0.2954772 -0.0561344 -0.5945717 -0.6042907 0.5303935 -0.6021838 0.327921 -0.7279028 -0.9549259 -0.1452876 -0.2588593 -0.7699638 -0.53294 0.3509001 -0.3836074 0.4595417 -0.8010411 -0.894968 0.014867 -0.4458826 -0.4371084 0.1062744 -0.8931081 -0.6916576 -0.4987757 -0.5223339 -0.556755 -0.8192143 0.1375215 -0.2790129 0.3191033 -0.9057179 -0.6485691 -0.3159701 -0.6924746 -0.6449581 -0.758225 -0.09551894 -0.2700802 -0.7750897 0.5712203 -0.5625424 -0.1102916 -0.819379 -0.6904313 -0.6489639 -0.31961 -0.4294959 -0.8259366 0.3651877 -0.09192198 -0.8544369 0.5113588 -0.1993756 -0.2720375 -0.9414058 -0.2419996 -0.848685 -0.470287 -0.1483185 -0.9511675 0.2707067 -0.155929 -0.01895529 -0.9875864 -0.2432253 -0.698497 -0.6730107 -0.1935881 -0.9809606 0.01549708 -0.1008555 0.2397571 -0.9655801 -0.2288717 -0.5028921 -0.8334971 -0.225261 -0.9451487 -0.2365408 0.1031293 0.2427603 -0.964589 0.2516683 -0.4958155 -0.831162 0.255279 -0.9380732 -0.2342039 0.1120646 -0.851434 0.5123494 0.2164385 -0.2659128 -0.9393853 0.2714418 -0.8411241 -0.4677922 0.1736206 -0.9464262 0.2722746 0.1660103 -0.01421254 -0.9860216 0.2702149 -0.6909347 -0.6705172 0.2222258 -0.9748378 0.01751786 0.4500597 -0.8129835 0.3694648 0.4424496 0.11923 -0.8888322 0.71109 -0.4781158 -0.5155157 0.5792717 -0.8024849 0.1430466 0.2782852 0.3273125 -0.9030083 0.6642923 -0.2966324 -0.686094 0.6679033 -0.738891 -0.08913671 0.2872194 -0.7668824 0.5739307 0.5734836 -0.09355837 -0.8138572 0.7123158 -0.6283053 -0.3127918 0.3866109 -0.6234398 0.6795991 0.7760876 0.1988422 -0.5984563 0.9624885 -0.2672528 -0.04681807 0.6069242 -0.5865947 0.5362367 0.5993141 0.3456184 -0.7220599 0.961262 -0.1170631 -0.2495428 0.7818766 -0.5100831 0.358447 0.3776773 0.4707554 -0.7973388 0.8984342 0.04128408 -0.4371634 0.9020457 -0.4009733 0.1597937 0.7757526 -0.1759839 0.6060015 0.3746739 0.6346525 -0.6758963 0.8913562 0.4273889 -0.151073 0.8949679 -0.01486796 0.445883 0.383607 -0.4595419 0.8010412 0.7699635 0.53294 -0.3509007 0.9549258 0.1452874 0.2588596 0.6021831 -0.3279216 0.7279033 0.5945727 0.6042899 -0.5303935 0.9536991 0.2954774 0.05613434 0.4371078 -0.1062747 0.8931084 0.4294954 0.8259369 -0.3651875 0.6904309 0.6489642 0.3196102 0.5625423 0.1102925 0.819379 0.2700798 0.7750911 -0.5712189 0.6449577 0.7582254 0.09551888 0.648569 0.3159695 0.692475 0.2790126 -0.3191041 0.9057177 0.5567549 0.8192142 -0.1375218 0.6916574 0.4987755 0.5223342 0.2288721 0.5028917 0.8334972 0.100854 -0.2397569 0.9655802 0.1935881 0.9809605 -0.01549708 0.2432255 0.6984965 0.6730111 0.1559299 0.01895439 0.9875863 0.1483183 0.9511671 -0.2707082 0.2419997 0.848685 0.4702872 0.1993755 0.2720374 0.9414058 0.09192222 0.854437 -0.5113587 0.2252612 0.9451488 0.2365403 -0.2164387 0.2659125 0.9393854 -0.112064 0.8514339 -0.5123494 -0.2552791 0.9380728 0.2342056 -0.2516684 0.4958146 0.8311624 -0.1031312 -0.242761 0.9645887 -0.2222257 0.9748378 -0.01751852 -0.2702151 0.690935 0.6705167 -0.1660091 0.01421266 0.9860219 -0.1736206 0.9464262 -0.2722745 -0.2714415 0.841125 0.467791 -0.71109 0.4781154 0.5155159 -0.4424486 -0.1192307 0.8888326 -0.4500597 0.8129837 -0.3694642 -0.7123164 0.6283048 0.3127913 -0.5734836 0.09355878 0.8138571 -0.2872195 0.7668821 -0.573931 -0.6679038 0.7388905 0.08913666 -0.6642925 0.2966319 0.686094 -0.2782857 -0.3273119 0.9030083 -0.5792723 0.8024845 -0.143047 -0.8984339 -0.04128408 0.4371638 -0.3776776 -0.4707549 0.797339 -0.781877 0.5100834 -0.3584458 -0.961262 0.1170633 0.2495427 -0.5993133 -0.3456188 0.7220605 -0.6069247 0.5865941 -0.5362368 -0.9624885 0.2672528 0.04681825 -0.7760877 -0.1988413 0.5984566 -0.3866113 0.6234397 -0.6795989 -0.9020456 0.4009739 -0.1597929</float_array>
          <technique_common>
            <accessor source="#Sphere_003-mesh-normals-array" count="264" stride="3">
              <param name="X" type="float"/>
              <param name="Y" type="float"/>
              <param name="Z" type="float"/>
            </accessor>
          </technique_common>
        </source>
        <vertices id="Sphere_003-mesh-vertices">
          <input semantic="POSITION" source="#Sphere_003-mesh-positions"/>
        </vertices>
        <polylist material="Material_006-material" count="264">
          <input semantic="VERTEX" source="#Sphere_003-mesh-vertices" offset="0"/>
          <input semantic="NORMAL" source="#Sphere_003-mesh-normals" offset="1"/>
          <vcount>3 3 3 3 3 3 3 3 3 3 3 3 3 3 3 3 3 3 3 3 3 3 3 3 3 3 3 3 3 3 3 3 3 3 3 3 3 3 3 3 3 3 3 3 3 3 3 3 3 3 3 3 3 3 3 3 3 3 3 3 3 3 3 3 3 3 3 3 3 3 3 3 3 3 3 3 3 3 3 3 3 3 3 3 3 3 3 3 3 3 3 3 3 3 3 3 3 3 3 3 3 3 3 3 3 3 3 3 3 3 3 3 3 3 3 3 3 3 3 3 3 3 3 3 3 3 3 3 3 3 3 3 3 3 3 3 3 3 3 3 3 3 3 3 3 3 3 3 3 3 3 3 3 3 3 3 3 3 3 3 3 3 3 3 3 3 3 3 3 3 3 3 3 3 3 3 3 3 3 3 3 3 3 3 3 3 3 3 3 3 3 3 3 3 3 3 3 3 3 3 3 3 3 3 3 3 3 3 3 3 3 3 3 3 3 3 3 3 3 3 3 3 3 3 3 3 3 3 3 3 3 3 3 3 3 3 3 3 3 3 3 3 3 3 3 3 3 3 3 3 3 3 3 3 3 3 3 3 3 3 3 3 3 3 </vcount>
          <p>15 0 14 0 3 0 12 1 11 1 0 1 8 2 19 2 18 2 16 3 15 3 4 3 13 4 12 4 1 4 9 5 20 5 19 5 6 6 17 6 16 6 14 7 13 7 2 7 10 8 21 8 20 8 7 9 18 9 17 9 32 10 31 10 19 10 29 11 28 11 16 11 26 12 25 12 13 12 21 13 33 13 32 13 30 14 29 14 17 14 27 15 26 15 14 15 24 16 23 16 11 16 31 17 30 17 18 17 28 18 27 18 15 18 25 19 24 19 12 19 24 20 35 20 34 20 42 21 41 21 30 21 39 22 38 22 27 22 25 23 36 23 35 23 43 24 42 24 31 24 40 25 39 25 28 25 26 26 37 26 36 26 44 27 43 27 32 27 41 28 40 28 29 28 27 29 38 29 37 29 55 30 54 30 43 30 52 31 51 31 40 31 38 32 49 32 48 32 35 33 46 33 45 33 53 34 52 34 41 34 50 35 49 35 38 35 36 36 47 36 46 36 54 37 53 37 42 37 51 38 50 38 39 38 37 39 48 39 47 39 59 40 58 40 46 40 66 41 65 41 53 41 63 42 62 42 50 42 60 43 59 43 47 43 67 44 66 44 54 44 64 45 63 45 51 45 61 46 60 46 48 46 58 47 57 47 45 47 65 48 64 48 52 48 62 49 61 49 49 49 69 50 68 50 57 50 65 51 76 51 75 51 73 52 72 52 61 52 70 53 69 53 58 53 66 54 77 54 76 54 63 55 74 55 73 55 71 56 70 56 59 56 67 57 78 57 77 57 64 58 75 58 74 58 72 59 71 59 60 59 82 60 81 60 70 60 78 61 89 61 88 61 75 62 86 62 85 62 83 63 82 63 71 63 80 64 79 64 68 64 76 65 87 65 86 65 84 66 83 66 72 66 81 67 80 67 69 67 77 68 88 68 87 68 74 69 85 69 84 69 81 70 92 70 91 70 88 71 99 71 98 71 85 72 96 72 95 72 82 73 93 73 92 73 100 74 99 74 88 74 86 75 97 75 96 75 83 76 94 76 93 76 80 77 91 77 90 77 87 78 98 78 97 78 84 79 95 79 94 79 94 80 105 80 104 80 91 81 102 81 101 81 109 82 108 82 97 82 95 83 106 83 105 83 92 84 103 84 102 84 110 85 109 85 98 85 96 86 107 86 106 86 93 87 104 87 103 87 111 88 110 88 99 88 108 89 107 89 96 89 104 90 115 90 114 90 122 91 121 91 110 91 108 92 119 92 118 92 105 93 116 93 115 93 102 94 113 94 112 94 120 95 119 95 108 95 106 96 117 96 116 96 103 97 114 97 113 97 121 98 120 98 109 98 107 99 118 99 117 99 117 100 128 100 127 100 114 101 125 101 124 101 121 102 132 102 131 102 118 103 129 103 128 103 126 104 125 104 114 104 122 105 133 105 132 105 119 106 130 106 129 106 116 107 127 107 126 107 124 108 123 108 112 108 120 109 131 109 130 109 22 110 21 110 10 110 0 111 11 111 56 111 11 112 23 112 56 112 22 113 33 113 21 113 23 114 34 114 56 114 22 115 44 115 33 115 34 116 45 116 56 116 22 117 55 117 44 117 45 118 57 118 56 118 22 119 67 119 55 119 22 120 78 120 67 120 57 121 68 121 56 121 68 122 79 122 56 122 22 123 89 123 78 123 79 124 90 124 56 124 22 125 100 125 89 125 22 126 111 126 100 126 90 127 101 127 56 127 101 128 112 128 56 128 22 129 122 129 111 129 112 130 123 130 56 130 22 131 133 131 122 131 4 132 3 132 126 132 22 133 10 133 133 133 1 134 0 134 123 134 131 135 8 135 7 135 128 136 5 136 4 136 2 137 1 137 124 137 132 138 9 138 8 138 129 139 6 139 5 139 3 140 2 140 125 140 133 141 10 141 9 141 123 142 0 142 56 142 130 143 7 143 6 143 4 144 15 144 3 144 1 145 12 145 0 145 7 146 8 146 18 146 5 147 16 147 4 147 2 148 13 148 1 148 8 149 9 149 19 149 5 150 6 150 16 150 3 151 14 151 2 151 9 152 10 152 20 152 6 153 7 153 17 153 20 154 32 154 19 154 17 155 29 155 16 155 14 156 26 156 13 156 20 157 21 157 32 157 18 158 30 158 17 158 15 159 27 159 14 159 12 160 24 160 11 160 19 161 31 161 18 161 16 162 28 162 15 162 13 163 25 163 12 163 23 164 24 164 34 164 31 165 42 165 30 165 28 166 39 166 27 166 24 167 25 167 35 167 32 168 43 168 31 168 29 169 40 169 28 169 25 170 26 170 36 170 33 171 44 171 32 171 30 172 41 172 29 172 26 173 27 173 37 173 44 174 55 174 43 174 41 175 52 175 40 175 37 176 38 176 48 176 34 177 35 177 45 177 42 178 53 178 41 178 39 179 50 179 38 179 35 180 36 180 46 180 43 181 54 181 42 181 40 182 51 182 39 182 36 183 37 183 47 183 47 184 59 184 46 184 54 185 66 185 53 185 51 186 63 186 50 186 48 187 60 187 47 187 55 188 67 188 54 188 52 189 64 189 51 189 49 190 61 190 48 190 46 191 58 191 45 191 53 192 65 192 52 192 50 193 62 193 49 193 58 194 69 194 57 194 64 195 65 195 75 195 62 196 73 196 61 196 59 197 70 197 58 197 65 198 66 198 76 198 62 199 63 199 73 199 60 200 71 200 59 200 66 201 67 201 77 201 63 202 64 202 74 202 61 203 72 203 60 203 71 204 82 204 70 204 77 205 78 205 88 205 74 206 75 206 85 206 72 207 83 207 71 207 69 208 80 208 68 208 75 209 76 209 86 209 73 210 84 210 72 210 70 211 81 211 69 211 76 212 77 212 87 212 73 213 74 213 84 213 80 214 81 214 91 214 87 215 88 215 98 215 84 216 85 216 95 216 81 217 82 217 92 217 89 218 100 218 88 218 85 219 86 219 96 219 82 220 83 220 93 220 79 221 80 221 90 221 86 222 87 222 97 222 83 223 84 223 94 223 93 224 94 224 104 224 90 225 91 225 101 225 98 226 109 226 97 226 94 227 95 227 105 227 91 228 92 228 102 228 99 229 110 229 98 229 95 230 96 230 106 230 92 231 93 231 103 231 100 232 111 232 99 232 97 233 108 233 96 233 103 234 104 234 114 234 111 235 122 235 110 235 107 236 108 236 118 236 104 237 105 237 115 237 101 238 102 238 112 238 109 239 120 239 108 239 105 240 106 240 116 240 102 241 103 241 113 241 110 242 121 242 109 242 106 243 107 243 117 243 116 244 117 244 127 244 113 245 114 245 124 245 120 246 121 246 131 246 117 247 118 247 128 247 115 248 126 248 114 248 121 249 122 249 132 249 118 250 119 250 129 250 115 251 116 251 126 251 113 252 124 252 112 252 119 253 120 253 130 253 127 254 4 254 126 254 124 255 1 255 123 255 130 256 131 256 7 256 127 257 128 257 4 257 125 258 2 258 124 258 131 259 132 259 8 259 128 260 129 260 5 260 126 261 3 261 125 261 132 262 133 262 9 262 129 263 130 263 6 263</p>
        </polylist>
      </mesh>
    </geometry>
    <geometry id="Sphere_004-mesh" name="Sphere.004">
      <mesh>
        <source id="Sphere_004-mesh-positions">
          <float_array id="Sphere_004-mesh-positions-array" count="402">-0.2540916 -0.5788059 0.7748677 -0.4957292 -0.5228877 0.6934251 -0.7035837 -0.4313364 0.5647268 -0.8634901 -0.3103895 0.3975433 -0.964551 -0.1682906 0.2032679 -0.9998793 -0.01472282 -0.004859924 -0.9670675 0.1398482 -0.2126564 -0.8683516 0.284889 -0.4059609 -0.7104591 0.4105151 -0.5715999 -0.5041499 0.5081651 -0.6982851 -0.2634837 0.5711846 -0.7773835 -0.2175147 -0.6822605 0.6980015 -0.425068 -0.7227478 0.5449309 -0.6036536 -0.7139807 0.3547243 -0.7411013 -0.6565571 0.1403437 -0.828044 -0.55439 -0.08360087 -0.8585569 -0.4144421 -0.3018483 -0.8305606 -0.2462511 -0.4995252 -0.7459628 -0.0612781 -0.6631605 -0.6105291 0.1278705 -0.7816023 -0.4334887 0.3083053 -0.8467795 -0.2269067 0.4677296 -0.8542498 -0.004861474 0.5952787 -0.8035046 -0.1213967 -0.7569738 0.6420686 -0.2393821 -0.8670826 0.4368768 -0.341054 -0.9181008 0.2019126 -0.4194837 -0.9065523 -0.04681158 -0.4693261 -0.8332238 -0.2923455 -0.4871848 -0.7031121 -0.5179566 -0.4718427 -0.5250845 -0.70827 -0.4243452 -0.3112736 -0.8503157 -0.3479293 -0.07624983 -0.934414 -0.2478026 0.1639704 -0.9548336 -0.1307885 0.3930163 -0.9101826 0.008507728 -0.7829261 0.6220561 0.0115742 -0.9172182 0.3982157 0.01385188 -0.9890037 0.1472374 0.01518553 -0.9933901 -0.1137746 0.01548439 -0.9300785 -0.3670333 0.01472795 -0.8033838 -0.5952791 0.01296782 -0.6219397 -0.7829577 0.01032406 -0.3981114 -0.9172789 0.006976664 -0.1471526 -0.9890891 0.0031538 0.1138346 -0.9934946 -8.83959e-4 0.367064 -0.9301952 0.1373908 -0.7531633 0.6433264 0.2605573 -0.8597212 0.4393067 0.3659673 -0.9076905 0.205349 0.4464372 -0.8938022 -0.04260277 0.4964832 -0.8190026 -0.2876513 0.5126945 -0.6883893 -0.5130969 0.4939666 -0.5108638 -0.7035757 0.4415757 -0.2985234 -0.8461071 0.3590921 -0.06583929 -0.9309775 0.2521371 0.1713318 -0.9524037 0.1279992 0.3968268 -0.9089249 0.004861176 -0.5952787 0.8035044 0.2307183 -0.6756606 0.7001801 0.4408524 -0.7099972 0.5491397 0.6209433 -0.6959486 0.3606764 0.7587176 -0.6344729 0.1476335 0.8447867 -0.5297585 -0.0754702 0.8732849 -0.3889418 -0.2934308 0.8422702 -0.2216193 -0.4913946 0.7538563 -0.0391941 -0.6558707 0.6140681 0.1459023 -0.7756502 0.4324322 0.3210557 -0.8425704 0.2213269 0.4743295 -0.8520712 0.2634834 -0.5711846 0.7773833 0.5041496 -0.5081654 0.698285 0.710459 -0.4105148 0.5715997 0.8683515 -0.2848892 0.4059608 0.9670675 -0.1398484 0.2126563 0.9998793 0.01472282 0.004859805 0.964551 0.1682906 -0.2032679 0.8634902 0.3103895 -0.3975434 0.7035839 0.4313362 -0.564727 0.4957294 0.522888 -0.6934253 0.2540919 0.5788057 -0.7748679 0.2269064 -0.4677296 0.8542495 0.4334883 -0.3083055 0.8467791 0.6105289 -0.1278707 0.7816022 0.7459627 0.0612781 0.6631602 0.8305606 0.2462508 0.4995252 0.8585568 0.4144421 0.3018482 0.8280441 0.55439 0.08360075 0.7411014 0.6565569 -0.1403439 0.6036539 0.7139804 -0.3547243 0.4250681 0.7227476 -0.5449311 0.217515 0.6822605 -0.6980016 0.1307884 -0.3930168 0.9101824 0.2478024 -0.1639707 0.9548332 0.3479291 0.07624959 0.9344138 0.4243451 0.3112736 0.8503156 0.4718427 0.5250845 0.7082698 0.4871847 0.7031121 0.5179566 0.4693261 0.8332236 0.2923454 0.4194837 0.9065523 0.04681146 0.3410542 0.9181011 -0.2019126 0.2393821 0.8670826 -0.4368769 0.1213968 0.756974 -0.6420686 8.84002e-4 -0.3670645 0.9301949 -0.0031538 -0.1138348 0.9934943 -0.006976723 0.1471524 0.9890889 -0.010324 0.3981114 0.9172787 -0.01296788 0.6219397 0.7829574 -0.01472806 0.8033836 0.5952789 -0.01548439 0.9300785 0.3670331 -0.01518559 0.9933901 0.1137745 -0.01385182 0.9890037 -0.1472375 -0.0115742 0.9172182 -0.3982158 -0.008507728 0.7829261 -0.6220561 -0.127999 -0.3968272 0.9089245 -0.2521369 -0.1713321 0.9524032 -0.3590921 0.06583881 0.9309773 -0.4415755 0.2985232 0.8461068 -0.4939666 0.5108636 0.7035755 -0.5126945 0.6883893 0.5130966 -0.4964831 0.8190024 0.2876511 -0.4464372 0.8938019 0.04260265 -0.3659673 0.9076905 -0.205349 -0.2605575 0.8597212 -0.4393069 -0.1373909 0.7531633 -0.6433264 -0.2213265 -0.47433 0.8520708 -0.4324319 -0.3210559 0.8425703 -0.6140679 -0.1459026 0.7756499 -0.753856 0.03919386 0.6558704 -0.8422701 0.2216191 0.4913944 -0.8732848 0.3889413 0.2934305 -0.8447866 0.529758 0.07546997 -0.7587175 0.6344726 -0.1476337 -0.6209433 0.6959488 -0.3606764 -0.4408526 0.7099972 -0.5491399 -0.2307186 0.6756606 -0.7001802</float_array>
          <technique_common>
            <accessor source="#Sphere_004-mesh-positions-array" count="134" stride="3">
              <param name="X" type="float"/>
              <param name="Y" type="float"/>
              <param name="Z" type="float"/>
            </accessor>
          </technique_common>
        </source>
        <source id="Sphere_004-mesh-normals">
          <float_array id="Sphere_004-mesh-normals-array" count="792">-0.8913565 -0.4273883 0.1510728 -0.3746717 -0.6346539 0.6758962 -0.7757524 0.1759837 -0.6060018 -0.9536994 -0.2954767 -0.05613458 -0.5945731 -0.60429 0.5303927 -0.6021842 0.3279213 -0.7279024 -0.954926 -0.1452877 -0.2588591 -0.769963 -0.5329405 0.3509008 -0.3836071 0.4595423 -0.8010408 -0.8949679 0.01486772 -0.4458828 -0.4371084 0.1062747 -0.8931081 -0.6916576 -0.4987747 -0.5223348 -0.5567535 -0.819215 0.1375228 -0.2790124 0.3191044 -0.9057176 -0.6485691 -0.3159697 -0.6924749 -0.6449577 -0.7582253 -0.09551966 -0.2700788 -0.7750905 0.5712199 -0.5625424 -0.1102918 -0.8193789 -0.6904312 -0.6489639 -0.3196101 -0.4294969 -0.8259369 0.365186 -0.09192073 -0.854438 0.5113574 -0.1993759 -0.2720368 -0.941406 -0.2419992 -0.8486855 -0.4702865 -0.1483191 -0.9511668 0.2707087 -0.1559297 -0.01895451 -0.9875863 -0.2432261 -0.698496 -0.6730115 -0.193588 -0.9809606 0.01549649 -0.1008538 0.2397567 -0.9655803 -0.2288721 -0.5028917 -0.8334972 -0.2252608 -0.9451486 -0.2365413 0.1031309 0.2427614 -0.9645885 0.2516689 -0.4958151 -0.831162 0.2552792 -0.9380727 -0.2342054 0.1120635 -0.8514339 0.5123496 0.2164382 -0.2659115 -0.9393857 0.2714412 -0.8411246 -0.4677917 0.1736206 -0.9464261 0.2722748 0.1660108 -0.01421314 -0.9860216 0.2702155 -0.6909353 -0.6705162 0.2222259 -0.9748378 0.01751804 0.4500604 -0.8129834 0.3694639 0.442449 0.1192309 -0.8888324 0.7110896 -0.4781154 -0.5155165 0.5792716 -0.8024847 0.1430483 0.2782862 0.3273131 -0.9030078 0.6642925 -0.2966325 -0.6860938 0.6679033 -0.7388911 -0.08913636 0.2872191 -0.7668824 0.573931 0.5734833 -0.09355795 -0.8138575 0.7123157 -0.6283056 -0.3127914 0.3866096 -0.62344 0.6795997 0.7760877 0.1988416 -0.5984562 0.9624886 -0.2672525 -0.04681795 0.6069251 -0.5865954 0.5362349 0.5993134 0.3456184 -0.7220606 0.961262 -0.1170629 -0.2495428 0.7818762 -0.5100834 0.3584474 0.377677 0.4707543 -0.7973398 0.8984342 0.0412845 -0.4371632 0.9020454 -0.4009738 0.1597937 0.7757529 -0.1759834 0.6060013 0.374673 0.6346539 -0.6758955 0.8913564 0.4273887 -0.1510729 0.8949677 -0.01486825 0.4458831 0.383606 -0.4595414 0.8010419 0.7699632 0.5329403 -0.3509007 0.9549259 0.1452878 0.2588589 0.6021832 -0.3279211 0.7279033 0.5945723 0.6042913 -0.5303922 0.9536995 0.2954763 0.05613493 0.4371079 -0.1062753 0.8931083 0.429497 0.8259365 -0.3651868 0.6904309 0.6489642 0.3196102 0.5625423 0.1102912 0.8193792 0.2700796 0.7750902 -0.5712201 0.6449579 0.7582251 0.09552013 0.6485691 0.3159694 0.692475 0.2790131 -0.319104 0.9057176 0.5567544 0.8192144 -0.1375221 0.6916573 0.4987753 0.5223346 0.228872 0.502892 0.833497 0.1008542 -0.2397564 0.9655803 0.193588 0.9809606 -0.01549619 0.2432253 0.6984962 0.6730116 0.1559295 0.01895415 0.9875863 0.1483185 0.9511671 -0.2707085 0.2419996 0.8486851 0.470287 0.1993755 0.2720365 0.9414062 0.09192073 0.854438 -0.5113575 0.2252612 0.9451485 0.2365412 -0.2164383 0.2659119 0.9393857 -0.1120633 0.8514338 -0.5123499 -0.2552797 0.9380726 0.2342051 -0.251669 0.4958146 0.8311623 -0.1031318 -0.2427613 0.9645884 -0.2222266 0.9748377 -0.01751703 -0.2702153 0.6909351 0.6705166 -0.1660113 0.01421201 0.9860215 -0.1736207 0.9464261 -0.2722749 -0.2714416 0.8411248 0.4677911 -0.71109 0.4781154 0.5155161 -0.4424492 -0.1192309 0.8888323 -0.4500601 0.812983 -0.3694651 -0.7123162 0.6283051 0.3127912 -0.5734835 0.09355807 0.8138573 -0.2872187 0.7668833 -0.5739299 -0.6679036 0.7388907 0.08913725 -0.6642924 0.2966321 0.6860941 -0.2782853 -0.3273126 0.9030082 -0.5792719 0.8024848 -0.1430466 -0.1347321 0.5598245 -0.8175841 -0.1251009 -0.6198287 0.7747014 -0.08926135 -0.66795 0.7388338 -0.09889096 0.5117006 -0.8534537 -0.02821338 -0.6951394 0.7183212 -0.03784388 0.4845117 -0.8739658 0.0416848 -0.6941096 0.7186614 0.032054 0.4855416 -0.8736258 0.1017032 -0.6651375 0.7397625 0.09207314 0.514514 -0.8525245 0.1261302 0.5636651 -0.8163167 0.1357612 -0.6159857 0.7759708 0.1347313 -0.5598232 0.8175852 0.1251012 0.6198285 -0.7747015 0.09889298 -0.5117021 0.8534526 0.08926171 0.6679502 -0.7388336 0.02821201 0.6951397 -0.718321 0.03784269 -0.4845125 0.8739655 -0.03205472 -0.4855418 0.8736257 -0.04168468 0.6941102 -0.7186609 -0.0920726 -0.514514 0.8525245 -0.1017033 0.6651379 -0.7397621 -0.898434 -0.04128402 0.4371635 -0.135761 0.6159856 -0.7759709 -0.3776775 -0.4707544 0.7973393 -0.7818766 0.5100837 -0.3584465 -0.9612619 0.117063 0.2495431 -0.5993129 -0.3456193 0.7220605 -0.606925 0.5865949 -0.5362356 -0.9624885 0.2672529 0.04681795 -0.7760873 -0.1988419 0.5984567 -0.3866103 0.6234404 -0.6795988 -0.1261301 -0.5636661 0.816316 -0.9020457 0.4009737 -0.159793 -0.8913563 -0.4273884 0.151073 -0.3746737 -0.6346521 0.6758967 -0.7757528 0.1759837 -0.6060013 -0.9536993 -0.2954771 -0.0561344 -0.5945717 -0.6042912 0.530393 -0.6021839 0.3279212 -0.7279026 -0.9549258 -0.1452879 -0.2588592 -0.769964 -0.5329393 0.3509007 -0.3836067 0.459542 -0.8010413 -0.8949679 0.01486784 -0.4458829 -0.4371087 0.1062744 -0.893108 -0.6916573 -0.4987757 -0.5223342 -0.5567534 -0.819215 0.1375228 -0.2790113 0.3191029 -0.9057186 -0.6485691 -0.3159693 -0.6924749 -0.6449583 -0.7582248 -0.09552001 -0.270079 -0.7750899 0.5712208 -0.5625426 -0.1102917 -0.8193788 -0.6904311 -0.6489641 -0.3196101 -0.4294968 -0.8259367 0.3651863 -0.0919224 -0.8544371 0.5113586 -0.1993756 -0.2720372 -0.941406 -0.2419999 -0.848685 -0.4702872 -0.1483184 -0.951167 0.2707085 -0.1559292 -0.01895529 -0.9875864 -0.2432262 -0.6984955 -0.673012 -0.1935881 -0.9809606 0.01549708 -0.1008538 0.239758 -0.9655801 -0.2288721 -0.502892 -0.8334969 -0.2252611 -0.9451487 -0.2365408 0.1031294 0.2427613 -0.9645887 0.2516683 -0.4958147 -0.8311625 0.2552792 -0.9380727 -0.2342057 0.1120641 -0.8514339 0.5123495 0.2164388 -0.2659123 -0.9393855 0.2714416 -0.8411248 -0.4677911 0.1736207 -0.946426 0.272275 0.1660108 -0.01421248 -0.9860216 0.270215 -0.6909347 -0.6705171 0.2222257 -0.9748379 0.01751726 0.4500603 -0.8129829 0.3694652 0.4424497 0.1192305 -0.8888322 0.7110896 -0.4781155 -0.5155164 0.5792717 -0.8024849 0.1430466 0.2782868 0.327313 -0.9030076 0.6642922 -0.2966324 -0.6860941 0.6679033 -0.7388909 -0.08913713 0.2872193 -0.7668827 0.5739305 0.5734832 -0.09355795 -0.8138575 0.7123159 -0.6283055 -0.3127914 0.3866105 -0.623441 0.6795982 0.7760875 0.1988425 -0.5984564 0.9624887 -0.2672525 -0.04681783 0.606925 -0.5865946 0.5362359 0.599313 0.345619 -0.7220606 0.9612621 -0.1170627 -0.2495429 0.7818761 -0.5100835 0.3584476 0.3776771 0.4707543 -0.7973396 0.8984343 0.04128408 -0.4371631 0.9020455 -0.4009737 0.1597934 0.7757523 -0.1759841 0.6060018 0.3746734 0.6346532 -0.6758959 0.8913564 0.4273884 -0.151073 0.8949677 -0.01486837 0.445883 0.3836066 -0.4595413 0.8010417 0.7699636 0.53294 -0.3509004 0.9549258 0.1452878 0.2588593 0.6021839 -0.3279216 0.7279025 0.5945724 0.6042912 -0.5303923 0.9536994 0.2954767 0.0561347 0.4371077 -0.1062756 0.8931083 0.4294974 0.8259363 -0.3651868 0.6904311 0.648964 0.3196102 0.5625422 0.110292 0.8193791 0.27008 0.77509 -0.57122 0.6449579 0.7582252 0.09551984 0.6485691 0.3159689 0.6924752 0.2790132 -0.3191038 0.9057177 0.556754 0.8192145 -0.1375232 0.6916575 0.4987757 0.5223341 0.2288717 0.5028921 0.8334971 0.1008546 -0.2397565 0.9655802 0.1935876 0.9809607 -0.01549583 0.2432262 0.6984956 0.6730118 0.1559293 0.01895409 0.9875864 0.1483182 0.9511669 -0.2707092 0.2419994 0.8486855 0.4702865 0.1993759 0.2720363 0.9414061 0.09192067 0.8544381 -0.5113572 0.2252612 0.9451484 0.2365417 -0.2164393 0.2659121 0.9393854 -0.112064 0.8514336 -0.5123499 -0.2552796 0.9380725 0.234206 -0.2516689 0.4958146 0.8311623 -0.1031312 -0.2427612 0.9645885 -0.2222257 0.9748379 -0.01751786 -0.2702155 0.690935 0.6705166 -0.16601 0.01421201 0.9860216 -0.1736207 0.9464262 -0.2722744 -0.2714414 0.8411244 0.467792 -0.7110897 0.4781152 0.5155165 -0.4424484 -0.1192312 0.8888326 -0.4500602 0.8129835 -0.3694641 -0.7123162 0.6283054 0.3127906 -0.5734837 0.09355807 0.8138571 -0.2872188 0.7668823 -0.5739312 -0.6679036 0.7388907 0.08913671 -0.6642922 0.2966321 0.6860942 -0.2782853 -0.3273127 0.9030082 -0.5792719 0.8024849 -0.1430461 -0.898434 -0.04128456 0.4371637 -0.3776775 -0.4707548 0.7973392 -0.7818766 0.5100835 -0.3584466 -0.961262 0.1170632 0.2495429 -0.5993132 -0.3456186 0.7220606 -0.6069247 0.5865952 -0.5362356 -0.9624885 0.267253 0.04681813 -0.7760874 -0.1988421 0.5984566 -0.3866103 0.6234404 -0.6795988 -0.9020459 0.4009735 -0.1597928</float_array>
          <technique_common>
            <accessor source="#Sphere_004-mesh-normals-array" count="264" stride="3">
              <param name="X" type="float"/>
              <param name="Y" type="float"/>
              <param name="Z" type="float"/>
            </accessor>
          </technique_common>
        </source>
        <vertices id="Sphere_004-mesh-vertices">
          <input semantic="POSITION" source="#Sphere_004-mesh-positions"/>
        </vertices>
        <polylist material="Material_004-material" count="264">
          <input semantic="VERTEX" source="#Sphere_004-mesh-vertices" offset="0"/>
          <input semantic="NORMAL" source="#Sphere_004-mesh-normals" offset="1"/>
          <vcount>3 3 3 3 3 3 3 3 3 3 3 3 3 3 3 3 3 3 3 3 3 3 3 3 3 3 3 3 3 3 3 3 3 3 3 3 3 3 3 3 3 3 3 3 3 3 3 3 3 3 3 3 3 3 3 3 3 3 3 3 3 3 3 3 3 3 3 3 3 3 3 3 3 3 3 3 3 3 3 3 3 3 3 3 3 3 3 3 3 3 3 3 3 3 3 3 3 3 3 3 3 3 3 3 3 3 3 3 3 3 3 3 3 3 3 3 3 3 3 3 3 3 3 3 3 3 3 3 3 3 3 3 3 3 3 3 3 3 3 3 3 3 3 3 3 3 3 3 3 3 3 3 3 3 3 3 3 3 3 3 3 3 3 3 3 3 3 3 3 3 3 3 3 3 3 3 3 3 3 3 3 3 3 3 3 3 3 3 3 3 3 3 3 3 3 3 3 3 3 3 3 3 3 3 3 3 3 3 3 3 3 3 3 3 3 3 3 3 3 3 3 3 3 3 3 3 3 3 3 3 3 3 3 3 3 3 3 3 3 3 3 3 3 3 3 3 3 3 3 3 3 3 3 3 3 3 3 3 3 3 3 3 3 3 </vcount>
          <p>15 0 14 0 3 0 12 1 11 1 0 1 8 2 19 2 18 2 16 3 15 3 4 3 13 4 12 4 1 4 9 5 20 5 19 5 6 6 17 6 16 6 14 7 13 7 2 7 10 8 21 8 20 8 7 9 18 9 17 9 32 10 31 10 19 10 29 11 28 11 16 11 26 12 25 12 13 12 33 13 32 13 20 13 30 14 29 14 17 14 27 15 26 15 14 15 12 16 24 16 23 16 31 17 30 17 18 17 28 18 27 18 15 18 25 19 24 19 12 19 24 20 35 20 34 20 42 21 41 21 30 21 39 22 38 22 27 22 25 23 36 23 35 23 43 24 42 24 31 24 40 25 39 25 28 25 26 26 37 26 36 26 44 27 43 27 32 27 41 28 40 28 29 28 27 29 38 29 37 29 55 30 54 30 43 30 52 31 51 31 40 31 38 32 49 32 48 32 35 33 46 33 45 33 53 34 52 34 41 34 50 35 49 35 38 35 36 36 47 36 46 36 54 37 53 37 42 37 51 38 50 38 39 38 37 39 48 39 47 39 59 40 58 40 46 40 66 41 65 41 53 41 63 42 62 42 50 42 60 43 59 43 47 43 67 44 66 44 54 44 64 45 63 45 51 45 61 46 60 46 48 46 58 47 57 47 45 47 65 48 64 48 52 48 62 49 61 49 49 49 69 50 68 50 57 50 65 51 76 51 75 51 73 52 72 52 61 52 70 53 69 53 58 53 66 54 77 54 76 54 63 55 74 55 73 55 71 56 70 56 59 56 67 57 78 57 77 57 64 58 75 58 74 58 72 59 71 59 60 59 82 60 81 60 70 60 78 61 89 61 88 61 75 62 86 62 85 62 83 63 82 63 71 63 80 64 79 64 68 64 76 65 87 65 86 65 84 66 83 66 72 66 81 67 80 67 69 67 77 68 88 68 87 68 74 69 85 69 84 69 81 70 92 70 91 70 88 71 99 71 98 71 85 72 96 72 95 72 82 73 93 73 92 73 100 74 99 74 88 74 86 75 97 75 96 75 83 76 94 76 93 76 91 77 90 77 79 77 87 78 98 78 97 78 84 79 95 79 94 79 94 80 105 80 104 80 91 81 102 81 101 81 109 82 108 82 97 82 95 83 106 83 105 83 92 84 103 84 102 84 110 85 109 85 98 85 96 86 107 86 106 86 93 87 104 87 103 87 111 88 110 88 99 88 108 89 107 89 96 89 104 90 115 90 114 90 122 91 121 91 110 91 108 92 119 92 118 92 105 93 116 93 115 93 102 94 113 94 112 94 120 95 119 95 108 95 106 96 117 96 116 96 103 97 114 97 113 97 121 98 120 98 109 98 107 99 118 99 117 99 117 100 128 100 127 100 114 101 125 101 124 101 121 102 132 102 131 102 118 103 129 103 128 103 115 104 126 104 125 104 122 105 133 105 132 105 119 106 130 106 129 106 116 107 127 107 126 107 113 108 124 108 123 108 120 109 131 109 130 109 22 110 21 110 10 110 0 111 11 111 56 111 11 112 23 112 56 112 22 113 33 113 21 113 23 114 34 114 56 114 22 115 44 115 33 115 34 116 45 116 56 116 22 117 55 117 44 117 45 118 57 118 56 118 22 119 67 119 55 119 22 120 78 120 67 120 57 121 68 121 56 121 68 122 79 122 56 122 22 123 89 123 78 123 79 124 90 124 56 124 22 125 100 125 89 125 22 126 111 126 100 126 90 127 101 127 56 127 101 128 112 128 56 128 22 129 122 129 111 129 112 130 123 130 56 130 22 131 133 131 122 131 4 132 3 132 126 132 22 133 10 133 133 133 1 134 0 134 123 134 131 135 8 135 7 135 128 136 5 136 4 136 2 137 1 137 124 137 132 138 9 138 8 138 129 139 6 139 5 139 3 140 2 140 125 140 133 141 10 141 9 141 123 142 0 142 56 142 130 143 7 143 6 143 4 144 15 144 3 144 1 145 12 145 0 145 7 146 8 146 18 146 5 147 16 147 4 147 2 148 13 148 1 148 8 149 9 149 19 149 5 150 6 150 16 150 3 151 14 151 2 151 9 152 10 152 20 152 6 153 7 153 17 153 20 154 32 154 19 154 17 155 29 155 16 155 14 156 26 156 13 156 21 157 33 157 20 157 18 158 30 158 17 158 15 159 27 159 14 159 11 160 12 160 23 160 19 161 31 161 18 161 16 162 28 162 15 162 13 163 25 163 12 163 23 164 24 164 34 164 31 165 42 165 30 165 28 166 39 166 27 166 24 167 25 167 35 167 32 168 43 168 31 168 29 169 40 169 28 169 25 170 26 170 36 170 33 171 44 171 32 171 30 172 41 172 29 172 26 173 27 173 37 173 44 174 55 174 43 174 41 175 52 175 40 175 37 176 38 176 48 176 34 177 35 177 45 177 42 178 53 178 41 178 39 179 50 179 38 179 35 180 36 180 46 180 43 181 54 181 42 181 40 182 51 182 39 182 36 183 37 183 47 183 47 184 59 184 46 184 54 185 66 185 53 185 51 186 63 186 50 186 48 187 60 187 47 187 55 188 67 188 54 188 52 189 64 189 51 189 49 190 61 190 48 190 46 191 58 191 45 191 53 192 65 192 52 192 50 193 62 193 49 193 58 194 69 194 57 194 64 195 65 195 75 195 62 196 73 196 61 196 59 197 70 197 58 197 65 198 66 198 76 198 62 199 63 199 73 199 60 200 71 200 59 200 66 201 67 201 77 201 63 202 64 202 74 202 61 203 72 203 60 203 71 204 82 204 70 204 77 205 78 205 88 205 74 206 75 206 85 206 72 207 83 207 71 207 69 208 80 208 68 208 75 209 76 209 86 209 73 210 84 210 72 210 70 211 81 211 69 211 76 212 77 212 87 212 73 213 74 213 84 213 80 214 81 214 91 214 87 215 88 215 98 215 84 216 85 216 95 216 81 217 82 217 92 217 89 218 100 218 88 218 85 219 86 219 96 219 82 220 83 220 93 220 80 221 91 221 79 221 86 222 87 222 97 222 83 223 84 223 94 223 93 224 94 224 104 224 90 225 91 225 101 225 98 226 109 226 97 226 94 227 95 227 105 227 91 228 92 228 102 228 99 229 110 229 98 229 95 230 96 230 106 230 92 231 93 231 103 231 100 232 111 232 99 232 97 233 108 233 96 233 103 234 104 234 114 234 111 235 122 235 110 235 107 236 108 236 118 236 104 237 105 237 115 237 101 238 102 238 112 238 109 239 120 239 108 239 105 240 106 240 116 240 102 241 103 241 113 241 110 242 121 242 109 242 106 243 107 243 117 243 116 244 117 244 127 244 113 245 114 245 124 245 120 246 121 246 131 246 117 247 118 247 128 247 114 248 115 248 125 248 121 249 122 249 132 249 118 250 119 250 129 250 115 251 116 251 126 251 112 252 113 252 123 252 119 253 120 253 130 253 127 254 4 254 126 254 124 255 1 255 123 255 130 256 131 256 7 256 127 257 128 257 4 257 125 258 2 258 124 258 131 259 132 259 8 259 128 260 129 260 5 260 126 261 3 261 125 261 132 262 133 262 9 262 129 263 130 263 6 263</p>
        </polylist>
      </mesh>
    </geometry>
  </library_geometries>
  <library_controllers/>
  <library_visual_scenes>
    <visual_scene id="Scene" name="Scene">
      <node id="Sphere_004" name="Sphere_004" type="NODE">
        <matrix sid="transform">0.2481173 0 0 -0.4262683 0 0.1588668 -0.1906451 -0.7014953 0 0.1906451 0.1588667 0.27365 0 0 0 1</matrix>
        <instance_geometry url="#Sphere_004-mesh" name="Sphere_004">
          <bind_material>
            <technique_common>
              <instance_material symbol="Material_004-material" target="#Material_004-material"/>
            </technique_common>
          </bind_material>
        </instance_geometry>
        <node id="Sphere_003" name="Sphere_003" type="NODE">
          <matrix sid="transform">0.6687172 -9.2004e-9 -1.7364e-8 0.002205729 7.88035e-8 0.6687174 -3.8743e-7 -0.2699563 1.68168e-8 5.96046e-8 0.6687171 0.3643849 0 0 0 1</matrix>
          <instance_geometry url="#Sphere_003-mesh" name="Sphere_003">
            <bind_material>
              <technique_common>
                <instance_material symbol="Material_006-material" target="#Material_006-material"/>
              </technique_common>
            </bind_material>
          </instance_geometry>
        </node>
      </node>
    </visual_scene>
  </library_visual_scenes>
  <scene>
    <instance_visual_scene url="#Scene"/>
  </scene>
</COLLADA>